<svg width="65" height="64" viewBox="0 0 65 64" fill="none" xmlns="http://www.w3.org/2000/svg">
<path d="M0.666656 32C0.666656 14.3269 14.9935 0 32.6667 0C50.3398 0 64.6667 14.3269 64.6667 32C64.6667 49.6731 50.3398 64 32.6667 64C14.9935 64 0.666656 49.6731 0.666656 32Z" fill="#FCCBFF"/>
<path fill-rule="evenodd" clip-rule="evenodd" d="M22.1215 30.1114C22.1215 24.3545 26.894 19.5819 32.6509 19.5819C35.7143 19.5819 38.4988 20.9332 40.434 23.0651L39.4501 24.049C38.9293 24.5697 38.9293 25.4139 39.4501 25.9346C39.9708 26.4553 40.8149 26.4553 41.3357 25.9346L41.9865 25.2838C42.748 26.7349 43.1804 28.3785 43.1804 30.1114C43.1804 30.8478 43.7773 31.4447 44.5137 31.4447C45.2501 31.4447 45.8471 30.8478 45.8471 30.1114C45.8471 27.6397 45.1497 25.3158 43.9429 23.3273L44.8321 22.4382C45.3528 21.9175 45.3528 21.0733 44.8321 20.5526C44.3113 20.0319 43.4672 20.0319 42.9465 20.5526L42.3213 21.1777C39.9023 18.5638 36.4511 16.9153 32.6509 16.9153C25.4213 16.9153 19.4548 22.8817 19.4548 30.1114C19.4548 30.8478 20.0518 31.4447 20.7882 31.4447C21.5245 31.4447 22.1215 30.8478 22.1215 30.1114ZM32.7133 25.9419C28.777 25.9419 25.4708 29.2481 25.4708 33.1844C25.4708 35.1371 26.2254 36.9536 27.5847 38.313C27.9218 38.6502 28.2023 39.0398 28.4122 39.4659H37.0144C37.2243 39.0398 37.5048 38.6502 37.8419 38.313C39.2012 36.9536 39.9559 35.1371 39.9559 33.1844C39.9559 29.2481 36.6496 25.9419 32.7133 25.9419ZM28.8423 41.301L28.8421 41.2659H36.5844L36.5843 41.301C36.5843 42.9066 35.5153 44.2512 34.0467 44.6656V45.6952C34.0467 46.4315 33.4496 47.0286 32.7133 47.0286C31.9769 47.0286 31.38 46.4315 31.38 45.6952V44.6656C29.9113 44.2512 28.8423 42.9066 28.8423 41.301ZM43.8893 35.3782C43.2464 35.3782 42.7252 35.8994 42.7252 36.5423C42.7252 37.1851 43.2464 37.7063 43.8893 37.7063C44.5323 37.7063 45.0533 37.1851 45.0533 36.5423C45.0533 35.8994 44.5323 35.3782 43.8893 35.3782ZM40.0585 36.5423C40.0585 34.4266 41.7736 32.7115 43.8893 32.7115C46.0049 32.7115 47.72 34.4266 47.72 36.5423C47.72 38.6579 46.0049 40.373 43.8893 40.373C41.7736 40.373 40.0585 38.6579 40.0585 36.5423ZM20.7882 38.1592C21.6834 38.1592 22.4091 37.4335 22.4091 36.5383C22.4091 35.6431 21.6834 34.9174 20.7882 34.9174C19.893 34.9174 19.1673 35.6431 19.1673 36.5383C19.1673 37.4335 19.893 38.1592 20.7882 38.1592Z" fill="#8C0095"/>
</svg>
