<svg width="65" height="64" viewBox="0 0 65 64" fill="none" xmlns="http://www.w3.org/2000/svg">
<path d="M0.5 32C0.5 14.3269 14.8269 0 32.5 0C50.1731 0 64.5 14.3269 64.5 32C64.5 49.6731 50.1731 64 32.5 64C14.8269 64 0.5 49.6731 0.5 32Z" fill="#D1FADF"/>
<g clip-path="url(#clip0_17246_376)">
<path d="M30.5001 17.9999H17.1667C16.9899 17.9999 16.8204 18.0701 16.6953 18.1952C16.5703 18.3202 16.5001 18.4898 16.5001 18.6666V33.9999C16.5001 34.1767 16.5703 34.3463 16.6953 34.4713C16.8204 34.5963 16.9899 34.6666 17.1667 34.6666H31.8334C32.0102 34.6666 32.1798 34.5963 32.3048 34.4713C32.4298 34.3463 32.5001 34.1767 32.5001 33.9999V19.5866C32.4432 19.1119 32.2012 18.6788 31.8266 18.3816C31.452 18.0845 30.9753 17.9473 30.5001 17.9999ZM28.5001 22.6666V29.9999C28.5001 30.2651 28.3947 30.5195 28.2072 30.707C28.0196 30.8946 27.7653 30.9999 27.5001 30.9999C27.2349 30.9999 26.9805 30.8946 26.793 30.707C26.6054 30.5195 26.5001 30.2651 26.5001 29.9999V22.6666C26.5001 22.4014 26.6054 22.147 26.793 21.9595C26.9805 21.7719 27.2349 21.6666 27.5001 21.6666C27.7653 21.6666 28.0196 21.7719 28.2072 21.9595C28.3947 22.147 28.5001 22.4014 28.5001 22.6666ZM22.5001 22.6666V29.9999C22.5001 30.2651 22.3947 30.5195 22.2072 30.707C22.0196 30.8946 21.7653 30.9999 21.5001 30.9999C21.2349 30.9999 20.9805 30.8946 20.793 30.707C20.6054 30.5195 20.5001 30.2651 20.5001 29.9999V22.6666C20.5001 22.4014 20.6054 22.147 20.793 21.9595C20.9805 21.7719 21.2349 21.6666 21.5001 21.6666C21.7653 21.6666 22.0196 21.7719 22.2072 21.9595C22.3947 22.147 22.5001 22.4014 22.5001 22.6666Z" fill="#126A11"/>
<path d="M43.46 21.5466C43.3791 21.5286 43.3078 21.481 43.26 21.4133L42.2734 19.9999C40.5 17.3333 36.02 17.3333 35.8334 17.3333C35.4798 17.3333 35.1406 17.4737 34.8906 17.7238C34.6405 17.9738 34.5 18.313 34.5 18.6666V35.9999C34.5 36.1838 34.427 36.3602 34.297 36.4902C34.1669 36.6202 33.9906 36.6932 33.8067 36.6932H17.1667C16.9944 36.6931 16.8288 36.7597 16.7045 36.879C16.5802 36.9983 16.5069 37.1611 16.5 37.3333V40.3599C16.4984 40.4202 16.5138 40.4797 16.5444 40.5316C16.5751 40.5835 16.6198 40.6256 16.6734 40.6532C16.7251 40.6866 16.7852 40.7043 16.8467 40.7043C16.9082 40.7043 16.9684 40.6866 17.02 40.6532C17.6563 40.2302 18.4027 40.0031 19.1667 39.9999C20.0654 40.0028 20.937 40.3082 21.6409 40.867C22.3448 41.4258 22.84 42.2053 23.0467 43.0799C23.0664 43.1506 23.108 43.2131 23.1655 43.2587C23.223 43.3042 23.2934 43.3303 23.3667 43.3333H24.3C24.3733 43.3303 24.4438 43.3042 24.5013 43.2587C24.5588 43.2131 24.6004 43.1506 24.62 43.0799C24.8268 42.2053 25.322 41.4258 26.0259 40.867C26.7298 40.3082 27.6013 40.0028 28.5 39.9999C29.1801 40.0036 29.8479 40.1807 30.4405 40.5143C31.0331 40.8479 31.5308 41.3271 31.8867 41.9066C31.9667 42.0266 32.0334 42.0399 32.26 42.0399H33.8334C33.995 42.0433 34.149 42.109 34.2633 42.2233C34.3776 42.3376 34.4433 42.4917 34.4467 42.6532C34.4467 43.0069 34.5872 43.346 34.8372 43.5961C35.0873 43.8461 35.4264 43.9866 35.78 43.9866H36.1267C36.2107 43.9869 36.2917 43.9554 36.3535 43.8986C36.4153 43.8417 36.4533 43.7636 36.46 43.6799C36.46 42.6191 36.8815 41.6016 37.6316 40.8515C38.3818 40.1013 39.3992 39.6799 40.46 39.6799C41.5209 39.6799 42.5383 40.1013 43.2885 40.8515C44.0386 41.6016 44.46 42.6191 44.46 43.6799C44.4668 43.7636 44.5048 43.8417 44.5666 43.8986C44.6284 43.9554 44.7094 43.9869 44.7934 43.9866H45.8334C46.5406 43.9866 47.2189 43.7056 47.719 43.2055C48.2191 42.7054 48.5 42.0272 48.5 41.3199V27.9999C48.4974 26.5169 48.0004 25.0771 47.0875 23.9083C46.1747 22.7395 44.8982 21.9084 43.46 21.5466ZM46.1267 31.6399C46.1323 31.683 46.129 31.7268 46.1171 31.7686C46.1052 31.8104 46.0849 31.8493 46.0574 31.883C46.03 31.9166 45.996 31.9444 45.9574 31.9645C45.9189 31.9846 45.8767 31.9967 45.8334 31.9999H42.1667C42.1167 32.0009 42.0671 31.9907 42.0216 31.9699C41.9761 31.9492 41.9359 31.9185 41.9039 31.88C41.8719 31.8416 41.8489 31.7965 41.8367 31.748C41.8245 31.6995 41.8234 31.6489 41.8334 31.5999V24.3466C41.8323 24.3012 41.8413 24.2561 41.8597 24.2146C41.8782 24.1731 41.9056 24.1362 41.94 24.1066C41.9728 24.0725 42.0121 24.0454 42.0557 24.0271C42.0993 24.0087 42.1461 23.9995 42.1934 23.9999C43.2297 24.0742 44.2045 24.5195 44.9391 25.2542C45.6738 25.9888 46.1191 26.9636 46.1934 27.9999L46.1267 31.6399Z" fill="#126A11"/>
<path d="M16.5001 43.9999C16.5001 44.7072 16.781 45.3854 17.2811 45.8855C17.7812 46.3856 18.4595 46.6666 19.1667 46.6666C19.874 46.6666 20.5523 46.3856 21.0524 45.8855C21.5525 45.3854 21.8334 44.7072 21.8334 43.9999C21.8334 43.2927 21.5525 42.6144 21.0524 42.1143C20.5523 41.6142 19.874 41.3333 19.1667 41.3333C18.4595 41.3333 17.7812 41.6142 17.2811 42.1143C16.781 42.6144 16.5001 43.2927 16.5001 43.9999Z" fill="#126A11"/>
<path d="M25.8334 43.9999C25.8334 44.3501 25.9024 44.6969 26.0364 45.0204C26.1704 45.3439 26.3668 45.6379 26.6144 45.8855C26.862 46.1332 27.156 46.3296 27.4796 46.4636C27.8031 46.5976 28.1498 46.6666 28.5 46.6666C28.8502 46.6666 29.197 46.5976 29.5205 46.4636C29.8441 46.3296 30.138 46.1332 30.3857 45.8855C30.6333 45.6379 30.8297 45.3439 30.9637 45.0204C31.0977 44.6969 31.1667 44.3501 31.1667 43.9999C31.1667 43.6497 31.0977 43.303 30.9637 42.9794C30.8297 42.6559 30.6333 42.3619 30.3857 42.1143C30.138 41.8667 29.8441 41.6703 29.5205 41.5362C29.197 41.4022 28.8502 41.3333 28.5 41.3333C28.1498 41.3333 27.8031 41.4022 27.4796 41.5362C27.156 41.6703 26.862 41.8667 26.6144 42.1143C26.3668 42.3619 26.1704 42.6559 26.0364 42.9794C25.9024 43.303 25.8334 43.6497 25.8334 43.9999Z" fill="#126A11"/>
<path d="M37.8334 43.9999C37.8334 44.7072 38.1143 45.3854 38.6144 45.8855C39.1145 46.3856 39.7928 46.6666 40.5 46.6666C41.2073 46.6666 41.8856 46.3856 42.3857 45.8855C42.8858 45.3854 43.1667 44.7072 43.1667 43.9999C43.1667 43.2927 42.8858 42.6144 42.3857 42.1143C41.8856 41.6142 41.2073 41.3333 40.5 41.3333C39.7928 41.3333 39.1145 41.6142 38.6144 42.1143C38.1143 42.6144 37.8334 43.2927 37.8334 43.9999Z" fill="#126A11"/>
</g>
<defs>
<clipPath id="clip0_17246_376">
<rect width="32" height="32" fill="white" transform="translate(16.5 16)"/>
</clipPath>
</defs>
</svg>
