<svg width="24" height="25" viewBox="0 0 24 25" fill="none" xmlns="http://www.w3.org/2000/svg">
<path d="M11.05 15.6116L9.2 17.4616C8.81 17.8516 8.19 17.8516 7.79 17.4716C7.68 17.3616 7.57 17.2616 7.46 17.1516C6.43 16.1116 5.5 15.0216 4.67 13.8816C3.85 12.7416 3.19 11.6016 2.71 10.4716C2.24 9.33162 2 8.24162 2 7.20162C2 6.52162 2.12 5.87162 2.36 5.27162C2.6 4.66162 2.98 4.10162 3.51 3.60162C4.15 2.97162 4.85 2.66162 5.59 2.66162C5.87 2.66162 6.15 2.72162 6.4 2.84162C6.66 2.96162 6.89 3.14162 7.07 3.40162L9.39 6.67162C9.57 6.92162 9.7 7.15162 9.79 7.37162C9.88 7.58162 9.93 7.79162 9.93 7.98162C9.93 8.22162 9.86 8.46162 9.72 8.69162C9.59 8.92162 9.4 9.16162 9.16 9.40162L8.4 10.1916C8.29 10.3016 8.24 10.4316 8.24 10.5916C8.24 10.6716 8.25 10.7416 8.27 10.8216C8.3 10.9016 8.33 10.9616 8.35 11.0216C8.53 11.3516 8.84 11.7816 9.28 12.3016C9.73 12.8216 10.21 13.3516 10.73 13.8816C10.83 13.9816 10.94 14.0816 11.04 14.1816C11.44 14.5716 11.45 15.2116 11.05 15.6116Z" fill="#CDC3FD"/>
<path d="M21.97 18.9917C21.97 19.2717 21.92 19.5617 21.82 19.8417C21.79 19.9217 21.76 20.0017 21.72 20.0817C21.55 20.4417 21.33 20.7817 21.04 21.1017C20.55 21.6417 20.01 22.0317 19.4 22.2817C19.39 22.2817 19.38 22.2917 19.37 22.2917C18.78 22.5317 18.14 22.6617 17.45 22.6617C16.43 22.6617 15.34 22.4217 14.19 21.9317C13.04 21.4417 11.89 20.7817 10.75 19.9517C10.36 19.6617 9.96998 19.3717 9.59998 19.0617L12.87 15.7917C13.15 16.0017 13.4 16.1617 13.61 16.2717C13.66 16.2917 13.72 16.3217 13.79 16.3517C13.87 16.3817 13.95 16.3917 14.04 16.3917C14.21 16.3917 14.34 16.3317 14.45 16.2217L15.21 15.4717C15.46 15.2217 15.7 15.0317 15.93 14.9117C16.16 14.7717 16.39 14.7017 16.64 14.7017C16.83 14.7017 17.03 14.7417 17.25 14.8317C17.47 14.9217 17.7 15.0517 17.95 15.2217L21.26 17.5717C21.52 17.7517 21.7 17.9617 21.81 18.2117C21.91 18.4617 21.97 18.7117 21.97 18.9917Z" fill="#CDC3FD"/>
</svg>
