<svg width="49" height="49" viewBox="0 0 49 49" fill="none" xmlns="http://www.w3.org/2000/svg">
<g clip-path="url(#clip0_17122_10537)">
<path d="M44.75 1.66162H3.75C2.82174 1.66162 1.9315 2.03037 1.27513 2.68675C0.618749 3.34312 0.25 4.23336 0.25 5.16162L0.25 44.1616C0.25525 45.0883 0.625685 45.9754 1.28093 46.6307C1.93617 47.2859 2.82336 47.6564 3.75 47.6616H44.75C45.6766 47.6564 46.5638 47.2859 47.2191 46.6307C47.8743 45.9754 48.2448 45.0883 48.25 44.1616V5.16162C48.25 4.70199 48.1595 4.24687 47.9836 3.82223C47.8077 3.39759 47.5499 3.01175 47.2249 2.68675C46.8999 2.36174 46.514 2.10393 46.0894 1.92804C45.6648 1.75215 45.2096 1.66162 44.75 1.66162ZM12.75 31.6616H6.75C6.35218 31.6616 5.97064 31.5036 5.68934 31.2223C5.40804 30.941 5.25 30.5594 5.25 30.1616C5.25 29.7638 5.40804 29.3823 5.68934 29.101C5.97064 28.8197 6.35218 28.6616 6.75 28.6616H12.75C13.1478 28.6616 13.5294 28.8197 13.8107 29.101C14.092 29.3823 14.25 29.7638 14.25 30.1616C14.25 30.5594 14.092 30.941 13.8107 31.2223C13.5294 31.5036 13.1478 31.6616 12.75 31.6616ZM12.75 22.6616H6.75C6.35218 22.6616 5.97064 22.5036 5.68934 22.2223C5.40804 21.941 5.25 21.5594 5.25 21.1616C5.25 20.7638 5.40804 20.3823 5.68934 20.101C5.97064 19.8197 6.35218 19.6616 6.75 19.6616H12.75C13.1478 19.6616 13.5294 19.8197 13.8107 20.101C14.092 20.3823 14.25 20.7638 14.25 21.1616C14.25 21.5594 14.092 21.941 13.8107 22.2223C13.5294 22.5036 13.1478 22.6616 12.75 22.6616ZM12.75 13.6616H6.75C6.35218 13.6616 5.97064 13.5036 5.68934 13.2223C5.40804 12.941 5.25 12.5594 5.25 12.1616C5.25 11.7638 5.40804 11.3823 5.68934 11.101C5.97064 10.8197 6.35218 10.6616 6.75 10.6616H12.75C13.1478 10.6616 13.5294 10.8197 13.8107 11.101C14.092 11.3823 14.25 11.7638 14.25 12.1616C14.25 12.5594 14.092 12.941 13.8107 13.2223C13.5294 13.5036 13.1478 13.6616 12.75 13.6616ZM45.25 44.1616C45.25 44.2942 45.1973 44.4214 45.1036 44.5152C45.0098 44.6089 44.8826 44.6616 44.75 44.6616H17.75V4.66162H44.75C44.8826 4.66162 45.0098 4.7143 45.1036 4.80807C45.1973 4.90184 45.25 5.02901 45.25 5.16162V44.1616Z" fill="white"/>
<path d="M26.79 9.20166H36.37C36.37 9.20166 38.37 9.20166 38.37 11.2017V14.2017C38.37 14.2017 38.37 16.2017 36.37 16.2017H26.79C26.79 16.2017 24.79 16.2017 24.79 14.2017V11.2017C24.79 11.2017 24.79 9.20166 26.79 9.20166Z" fill="white"/>
<path d="M25.87 23.3215H37.31C37.7078 23.3215 38.0893 23.1635 38.3707 22.8822C38.652 22.6009 38.81 22.2194 38.81 21.8215C38.81 21.4237 38.652 21.0422 38.3707 20.7609C38.0893 20.4796 37.7078 20.3215 37.31 20.3215H25.87C25.4722 20.3215 25.0906 20.4796 24.8093 20.7609C24.528 21.0422 24.37 21.4237 24.37 21.8215C24.37 22.2194 24.528 22.6009 24.8093 22.8822C25.0906 23.1635 25.4722 23.3215 25.87 23.3215Z" fill="white"/>
<path d="M37.31 39.1416H25.87C25.4722 39.1416 25.0906 39.2996 24.8093 39.5809C24.528 39.8622 24.37 40.2438 24.37 40.6416C24.37 41.0394 24.528 41.421 24.8093 41.7023C25.0906 41.9836 25.4722 42.1416 25.87 42.1416H37.31C37.7078 42.1416 38.0893 41.9836 38.3707 41.7023C38.652 41.421 38.81 41.0394 38.81 40.6416C38.81 40.2438 38.652 39.8622 38.3707 39.5809C38.0893 39.2996 37.7078 39.1416 37.31 39.1416Z" fill="white"/>
<path d="M26.79 28.1616H36.37C36.37 28.1616 38.37 28.1616 38.37 30.1616V33.1616C38.37 33.1616 38.37 35.1616 36.37 35.1616H26.79C26.79 35.1616 24.79 35.1616 24.79 33.1616V30.1616C24.79 30.1616 24.79 28.1616 26.79 28.1616Z" fill="white"/>
</g>
<defs>
<clipPath id="clip0_17122_10537">
<rect width="48" height="48" fill="white" transform="translate(0.25 0.661621)"/>
</clipPath>
</defs>
</svg>
