<svg width="49" height="48" viewBox="0 0 49 48" fill="none" xmlns="http://www.w3.org/2000/svg">
<g clip-path="url(#clip0_17275_312)">
<path d="M0.666687 24C0.666687 17.6348 3.19525 11.5303 7.69612 7.02944C12.197 2.52856 18.3015 0 24.6667 0C31.0319 0 37.1364 2.52856 41.6373 7.02944C46.1381 11.5303 48.6667 17.6348 48.6667 24C48.6667 30.3652 46.1381 36.4697 41.6373 40.9706C37.1364 45.4714 31.0319 48 24.6667 48C18.3015 48 12.197 45.4714 7.69612 40.9706C3.19525 36.4697 0.666687 30.3652 0.666687 24ZM23.1667 3.231C21.1567 3.843 19.1617 5.691 17.5057 8.796C17.0757 9.602 16.6807 10.474 16.3207 11.412C18.4357 11.883 20.7367 12.183 23.1667 12.273V3.231ZM13.4137 10.617C13.8417 9.463 14.3227 8.385 14.8567 7.383C15.3788 6.40416 15.9777 5.46823 16.6477 4.584C14.0933 5.6417 11.7729 7.19338 9.81969 9.15C10.9077 9.704 12.1057 10.194 13.4137 10.62V10.617ZM11.1937 22.5C11.3017 19.29 11.7577 16.239 12.5017 13.476C10.877 12.9587 9.305 12.2887 7.80669 11.475C5.41672 14.6827 3.99849 18.5095 3.72069 22.5H11.1937ZM15.3937 14.277C14.6853 16.9641 14.2828 19.7226 14.1937 22.5H23.1667V15.273C20.4367 15.183 17.8177 14.838 15.3937 14.277ZM26.1667 15.27V22.5H35.1367C35.0486 19.7227 34.647 16.9642 33.9397 14.277C31.5157 14.838 28.8967 15.18 26.1667 15.273V15.27ZM14.1967 25.5C14.3017 28.461 14.7247 31.242 15.3937 33.723C17.9468 33.1434 20.5498 32.8108 23.1667 32.73V25.5H14.1967ZM26.1667 25.5V32.727C28.8967 32.817 31.5157 33.162 33.9397 33.723C34.6087 31.242 35.0317 28.461 35.1397 25.5H26.1667ZM16.3207 36.588C16.6807 37.526 17.0757 38.398 17.5057 39.204C19.1617 42.309 21.1597 44.154 23.1667 44.769V35.73C20.7367 35.82 18.4357 36.12 16.3207 36.591V36.588ZM16.6507 43.416C15.9797 42.5319 15.3798 41.5959 14.8567 40.617C14.3053 39.5708 13.8233 38.4894 13.4137 37.38C12.1797 37.7768 10.9781 38.2683 9.81969 38.85C11.7729 40.8066 14.0933 42.3583 16.6477 43.416H16.6507ZM12.5017 34.524C11.7238 31.5755 11.284 28.548 11.1907 25.5H3.72069C3.99849 29.4905 5.41672 33.3173 7.80669 36.525C9.21669 35.751 10.7917 35.079 12.5017 34.524ZM32.6857 43.416C35.2387 42.3588 37.5581 40.8082 39.5107 38.853C38.3532 38.2714 37.1527 37.78 35.9197 37.383C35.51 38.4914 35.0279 39.5717 34.4767 40.617C33.9546 41.5958 33.3557 42.5318 32.6857 43.416ZM26.1667 35.727V44.769C28.1767 44.157 30.1717 42.309 31.8277 39.204C32.2597 38.398 32.6547 37.526 33.0127 36.588C30.7616 36.0939 28.4701 35.8067 26.1667 35.73V35.727ZM36.8317 34.524C38.5417 35.079 40.1167 35.751 41.5267 36.525C43.9166 33.3173 45.3349 29.4905 45.6127 25.5H38.1427C38.0494 28.548 37.6095 31.5755 36.8317 34.524ZM45.6127 22.5C45.3349 18.5095 43.9166 14.6827 41.5267 11.475C40.1167 12.249 38.5417 12.921 36.8317 13.476C37.5757 16.236 38.0317 19.29 38.1427 22.5H45.6127ZM34.4767 7.383C35.0087 8.387 35.4907 9.465 35.9227 10.617C37.1547 10.2199 38.3542 9.72842 39.5107 9.147C37.5578 7.19286 35.2385 5.64326 32.6857 4.587C33.3397 5.436 33.9397 6.378 34.4767 7.383ZM33.0127 11.412C32.6703 10.5171 32.2746 9.64356 31.8277 8.796C30.1717 5.691 28.1767 3.846 26.1667 3.231V12.27C28.5967 12.18 30.8977 11.88 33.0127 11.409V11.412Z" fill="white"/>
</g>
<defs>
<clipPath id="clip0_17275_312">
<rect width="48" height="48" fill="white" transform="translate(0.666687)"/>
</clipPath>
</defs>
</svg>
