<svg width="49" height="48" viewBox="0 0 49 48" fill="none" xmlns="http://www.w3.org/2000/svg">
<g clip-path="url(#clip0_17129_11157)">
<path d="M48.3334 28.5C48.3364 26.6363 47.7608 24.8177 46.6861 23.2951C45.6113 21.7726 44.0904 20.6212 42.3334 20V18.5C42.3334 13.7261 40.4369 9.14773 37.0613 5.77208C33.6856 2.39642 29.1073 0.5 24.3334 0.5C19.5595 0.5 14.9811 2.39642 11.6054 5.77208C8.22979 9.14773 6.33337 13.7261 6.33337 18.5V20C4.58229 20.6226 3.06688 21.7719 1.99524 23.2903C0.923592 24.8087 0.348267 26.6215 0.348267 28.48C0.348267 30.3385 0.923592 32.1513 1.99524 33.6697C3.06688 35.1881 4.58229 36.3374 6.33337 36.96C6.78656 37.1176 7.2703 37.1671 7.74601 37.1046C8.22172 37.0421 8.67626 36.8693 9.07337 36.6C9.45896 36.3196 9.77369 35.9529 9.99245 35.5293C10.2112 35.1056 10.328 34.6368 10.3334 34.16V18.5C10.3334 14.787 11.8084 11.226 14.4339 8.6005C17.0594 5.975 20.6203 4.5 24.3334 4.5C28.0464 4.5 31.6074 5.975 34.2329 8.6005C36.8584 11.226 38.3334 14.787 38.3334 18.5V34.16C38.3372 34.5762 38.4281 34.987 38.6003 35.3659C38.7726 35.7448 39.0223 36.0835 39.3334 36.36V37.5C39.3334 40.46 36.7534 41.5 34.3334 41.5H30.7734C30.4218 40.891 29.9159 40.3855 29.3066 40.0344C28.6974 39.6833 28.0064 39.499 27.3032 39.5001C26.6001 39.5011 25.9096 39.6876 25.3015 40.0405C24.6933 40.3935 24.1889 40.9005 23.8392 41.5105C23.4894 42.1206 23.3067 42.812 23.3093 43.5151C23.312 44.2183 23.4999 44.9083 23.8543 45.5157C24.2086 46.1231 24.7168 46.6263 25.3276 46.9747C25.9384 47.323 26.6302 47.5042 27.3334 47.5C28.0314 47.4958 28.7162 47.309 29.3197 46.9581C29.9232 46.6072 30.4243 46.1046 30.7734 45.5H34.3334C39.6334 45.5 43.3334 42.22 43.3334 37.5V36.54C44.8315 35.7967 46.0929 34.6508 46.976 33.2306C47.8592 31.8105 48.3292 30.1724 48.3334 28.5Z" fill="white"/>
</g>
<defs>
<clipPath id="clip0_17129_11157">
<rect width="48" height="48" fill="white" transform="translate(0.333344)"/>
</clipPath>
</defs>
</svg>
