<svg width="64" height="64" viewBox="0 0 64 64" fill="none" xmlns="http://www.w3.org/2000/svg">
<path d="M0 32C0 14.3269 14.3269 0 32 0C49.6731 0 64 14.3269 64 32C64 49.6731 49.6731 64 32 64C14.3269 64 0 49.6731 0 32Z" fill="#FDDEDE"/>
<g clip-path="url(#clip0_17129_11007)">
<path d="M30 37.3333H44.6666C45.6652 37.33 46.6445 37.6072 47.4933 38.1333C47.5429 38.1654 47.6008 38.1825 47.66 38.1825C47.7191 38.1825 47.777 38.1654 47.8266 38.1333C47.8792 38.1045 47.9231 38.062 47.9536 38.0104C47.9841 37.9588 48.0001 37.8999 48 37.8399V27.9999C48.0072 27.9112 48.0072 27.822 48 27.7333L46.28 19.7333C46.128 19.0613 45.7551 18.4597 45.2209 18.0246C44.6867 17.5895 44.0221 17.3461 43.3333 17.3333H37.3333C36.2853 17.3653 35.273 17.7208 34.4351 18.351C33.5971 18.9813 32.9748 19.8553 32.6533 20.8533L30.7866 27.3866C29.9659 27.5271 29.2 27.8916 28.5733 28.4399L26.0133 30.9333C25.5959 31.3691 25.3538 31.9435 25.3333 32.5466V32.9999H23.3333V31.1999C23.1636 27.4011 21.8378 23.7447 19.5333 20.7199C19.3703 20.503 19.165 20.3216 18.9297 20.1866C18.6944 20.0516 18.4341 19.9658 18.1647 19.9346C17.8952 19.9034 17.6222 19.9273 17.3623 20.0049C17.1023 20.0825 16.8609 20.2121 16.6526 20.3859C16.4444 20.5598 16.2737 20.7742 16.1509 21.0161C16.0281 21.258 15.9558 21.5223 15.9384 21.793C15.921 22.0637 15.9589 22.3351 16.0497 22.5908C16.1405 22.8464 16.2823 23.0808 16.4666 23.2799C18.1637 25.5894 19.159 28.3392 19.3333 31.1999V35.4533C19.157 38.3176 18.162 41.0712 16.4666 43.3866C16.1586 43.7965 16.0199 44.309 16.0789 44.8183C16.1379 45.3276 16.3903 45.7947 16.7839 46.1233C17.1775 46.4519 17.6822 46.6167 18.1939 46.5838C18.7055 46.551 19.185 46.3228 19.5333 45.9466C21.5082 43.3287 22.7797 40.2486 23.2266 36.9999H25.3333V39.0133C25.335 39.0813 25.3559 39.1475 25.3936 39.2041C25.4314 39.2608 25.4844 39.3055 25.5466 39.3333C25.6125 39.353 25.6827 39.3535 25.7489 39.3346C25.8151 39.3157 25.8744 39.2782 25.92 39.2266C26.4211 38.6329 27.0459 38.1558 27.7506 37.8288C28.4553 37.5017 29.223 37.3326 30 37.3333ZM42.1866 19.9999C42.455 20.0089 42.7131 20.1048 42.9223 20.2731C43.1315 20.4414 43.2804 20.6731 43.3466 20.9333L44.4 25.8533C44.422 25.9511 44.4217 26.0526 44.3991 26.1503C44.3765 26.2479 44.3322 26.3393 44.2694 26.4174C44.2066 26.4956 44.127 26.5586 44.0365 26.6017C43.946 26.6449 43.8469 26.667 43.7466 26.6666H34.9733C34.8698 26.6666 34.7677 26.6425 34.6751 26.5962C34.5826 26.5499 34.5021 26.4827 34.44 26.3999C34.3779 26.3171 34.3359 26.221 34.3174 26.1192C34.2989 26.0173 34.3043 25.9126 34.3333 25.8133L35.48 21.8133C35.6527 21.3005 35.9774 20.8524 36.4108 20.5285C36.8442 20.2047 37.3659 20.0203 37.9066 19.9999H42.1866Z" fill="#AE0A0A"/>
<path d="M44.6666 39.3333H30C29.1159 39.3333 28.2681 39.6844 27.6429 40.3096C27.0178 40.9347 26.6666 41.7825 26.6666 42.6666C26.6666 43.5506 27.0178 44.3985 27.6429 45.0236C28.2681 45.6487 29.1159 45.9999 30 45.9999H44.6666C45.5507 45.9999 46.3985 45.6487 47.0236 45.0236C47.6488 44.3985 48 43.5506 48 42.6666C48 41.7825 47.6488 40.9347 47.0236 40.3096C46.3985 39.6844 45.5507 39.3333 44.6666 39.3333ZM30 42.6666C30 42.4029 30.0782 42.1451 30.2247 41.9258C30.3712 41.7066 30.5794 41.5357 30.823 41.4347C31.0667 41.3338 31.3348 41.3074 31.5934 41.3589C31.8521 41.4103 32.0896 41.5373 32.2761 41.7238C32.4626 41.9102 32.5896 42.1478 32.641 42.4065C32.6925 42.6651 32.666 42.9332 32.5651 43.1768C32.4642 43.4205 32.2933 43.6287 32.0741 43.7752C31.8548 43.9217 31.597 43.9999 31.3333 43.9999C30.9797 43.9999 30.6405 43.8594 30.3905 43.6094C30.1404 43.3593 30 43.0202 30 42.6666ZM36 42.6666C36 42.4029 36.0782 42.1451 36.2247 41.9258C36.3712 41.7066 36.5794 41.5357 36.823 41.4347C37.0667 41.3338 37.3348 41.3074 37.5934 41.3589C37.8521 41.4103 38.0896 41.5373 38.2761 41.7238C38.4626 41.9102 38.5896 42.1478 38.641 42.4065C38.6925 42.6651 38.666 42.9332 38.5651 43.1768C38.4642 43.4205 38.2933 43.6287 38.0741 43.7752C37.8548 43.9217 37.597 43.9999 37.3333 43.9999C36.9797 43.9999 36.6405 43.8594 36.3905 43.6094C36.1404 43.3593 36 43.0202 36 42.6666ZM42 42.6666C42 42.4029 42.0782 42.1451 42.2247 41.9258C42.3712 41.7066 42.5794 41.5357 42.823 41.4347C43.0667 41.3338 43.3348 41.3074 43.5934 41.3589C43.8521 41.4103 44.0896 41.5373 44.2761 41.7238C44.4626 41.9102 44.5896 42.1478 44.641 42.4065C44.6925 42.6651 44.666 42.9332 44.5651 43.1768C44.4642 43.4205 44.2933 43.6287 44.0741 43.7752C43.8548 43.9217 43.597 43.9999 43.3333 43.9999C42.9797 43.9999 42.6405 43.8594 42.3905 43.6094C42.1404 43.3593 42 43.0202 42 42.6666Z" fill="#AE0A0A"/>
</g>
<defs>
<clipPath id="clip0_17129_11007">
<rect width="32" height="32" fill="white" transform="translate(16 16)"/>
</clipPath>
</defs>
</svg>
