<svg width="65" height="64" viewBox="0 0 65 64" fill="none" xmlns="http://www.w3.org/2000/svg">
<path d="M0.333374 32C0.333374 14.3269 14.6603 0 32.3334 0C50.0065 0 64.3334 14.3269 64.3334 32C64.3334 49.6731 50.0065 64 32.3334 64C14.6603 64 0.333374 49.6731 0.333374 32Z" fill="#EAFAD1"/>
<g clip-path="url(#clip0_17129_11029)">
<path d="M47.6667 38.8267H45C44.9139 38.8267 44.8311 38.7935 44.7689 38.7338C44.7068 38.6741 44.6702 38.5927 44.6667 38.5067V30.8267C44.6702 30.7406 44.7068 30.6592 44.7689 30.5995C44.8311 30.5399 44.9139 30.5066 45 30.5067H46.6667C47.0203 30.5067 47.3595 30.3662 47.6095 30.1161C47.8596 29.8661 48 29.527 48 29.1733C48 28.8197 47.8596 28.4806 47.6095 28.2305C47.3595 27.9805 47.0203 27.84 46.6667 27.84H43.88C43.8257 27.8367 43.7726 27.8219 43.7244 27.7966C43.6761 27.7713 43.6337 27.7361 43.6 27.6933L42.2667 25.6933C42.2326 25.6429 42.213 25.5842 42.2099 25.5234C42.2069 25.4626 42.2205 25.4022 42.2494 25.3486C42.2782 25.295 42.3212 25.2504 42.3736 25.2195C42.426 25.1886 42.4859 25.1726 42.5467 25.1733H45.3734C45.727 25.1733 46.0661 25.0329 46.3162 24.7828C46.5662 24.5328 46.7067 24.1936 46.7067 23.84C46.7067 23.4864 46.5662 23.1472 46.3162 22.8972C46.0661 22.6471 45.727 22.5067 45.3734 22.5067H40.2134C40.159 22.5033 40.106 22.4885 40.0577 22.4633C40.0094 22.438 39.9671 22.4028 39.9334 22.36L38.6 20.36C38.566 20.3096 38.5463 20.2508 38.5433 20.1901C38.5402 20.1293 38.5539 20.0689 38.5827 20.0153C38.6115 19.9617 38.6545 19.9171 38.7069 19.8862C38.7593 19.8553 38.8192 19.8393 38.88 19.84H42.7067C43.0603 19.84 43.3995 19.6995 43.6495 19.4495C43.8996 19.1994 44.04 18.8603 44.04 18.5067C44.04 18.1531 43.8996 17.8139 43.6495 17.5639C43.3995 17.3138 43.0603 17.1733 42.7067 17.1733H26C25.7251 17.1781 25.4583 17.2678 25.2364 17.4302C25.0144 17.5925 24.848 17.8195 24.76 18.08C24.7334 18.1733 16.9334 27.7467 16.88 27.7867C16.7155 27.9068 16.5807 28.0629 16.486 28.2432C16.3912 28.4235 16.339 28.6231 16.3334 28.8267V32.16C16.3334 32.5136 16.4738 32.8528 16.7239 33.1028C16.9739 33.3529 17.3131 33.4933 17.6667 33.4933C18.0203 33.4933 18.3595 33.3529 18.6095 33.1028C18.8596 32.8528 19 32.5136 19 32.16V30.16C19.0035 30.0739 19.0401 29.9925 19.1023 29.9329C19.1644 29.8732 19.2472 29.8399 19.3334 29.84H34C34.0862 29.8399 34.169 29.8732 34.2312 29.9329C34.2933 29.9925 34.3299 30.0739 34.3334 30.16V37.84C34.3368 37.9261 34.3735 38.0075 34.4356 38.0671C34.4977 38.1268 34.5806 38.1601 34.6667 38.16C35.1971 38.16 35.7058 38.3707 36.0809 38.7458C36.456 39.1209 36.6667 39.6296 36.6667 40.16V41.4933C36.6702 41.9685 36.5044 42.4294 36.199 42.7934C35.8936 43.1574 35.4686 43.4008 35 43.48C34.9212 43.4928 34.8495 43.5335 34.7981 43.5947C34.7467 43.6558 34.719 43.7334 34.72 43.8133V46.16C34.72 46.3368 34.7903 46.5064 34.9153 46.6314C35.0403 46.7564 35.2099 46.8267 35.3867 46.8267H47.6667C47.8435 46.8267 48.0131 46.7564 48.1381 46.6314C48.2631 46.5064 48.3334 46.3368 48.3334 46.16V39.4933C48.3334 39.3165 48.2631 39.147 48.1381 39.0219C48.0131 38.8969 47.8435 38.8267 47.6667 38.8267ZM30.7067 22.3733L29.08 20.3733C29.0429 20.3238 29.0203 20.2649 29.0147 20.2033C29.0092 20.1416 29.0209 20.0796 29.0486 20.0243C29.0762 19.9689 29.1188 19.9223 29.1715 19.8898C29.2241 19.8572 29.2848 19.84 29.3467 19.84H34.7867C34.8402 19.8409 34.8929 19.8532 34.9412 19.8762C34.9895 19.8992 35.0323 19.9323 35.0667 19.9733L36.4 21.9733C36.433 22.0249 36.4518 22.0842 36.4544 22.1453C36.457 22.2065 36.4434 22.2672 36.415 22.3214C36.3866 22.3755 36.3443 22.4212 36.2925 22.4538C36.2407 22.4863 36.1812 22.5046 36.12 22.5067H31C30.944 22.5099 30.888 22.4994 30.8369 22.4762C30.7858 22.4529 30.7412 22.4176 30.7067 22.3733ZM35.3067 27.84C35.2551 27.839 35.2044 27.8265 35.1583 27.8035C35.1122 27.7804 35.0718 27.7473 35.04 27.7067L33.4134 25.7067C33.3762 25.6572 33.3536 25.5983 33.3481 25.5366C33.3425 25.475 33.3542 25.413 33.3819 25.3576C33.4096 25.3022 33.4521 25.2557 33.5048 25.2231C33.5575 25.1906 33.6181 25.1733 33.68 25.1733H38.4534C38.5069 25.1742 38.5596 25.1866 38.6079 25.2096C38.6562 25.2326 38.699 25.2657 38.7334 25.3067L40.0667 27.3067C40.0997 27.3582 40.1184 27.4175 40.1211 27.4787C40.1237 27.5398 40.1101 27.6005 40.0817 27.6547C40.0532 27.7089 40.011 27.7545 39.9591 27.7871C39.9073 27.8196 39.8479 27.8379 39.7867 27.84H35.3067ZM41.9734 38.5067C41.9699 38.5927 41.9333 38.6741 41.8712 38.7338C41.809 38.7935 41.7262 38.8267 41.64 38.8267H37.3334C37.2472 38.8267 37.1644 38.7935 37.1023 38.7338C37.0401 38.6741 37.0035 38.5927 37 38.5067V30.8267C37.0035 30.7406 37.0401 30.6592 37.1023 30.5995C37.1644 30.5399 37.2472 30.5066 37.3334 30.5067H41.6667C41.7529 30.5066 41.8357 30.5399 41.8978 30.5995C41.96 30.6592 41.9966 30.7406 42 30.8267L41.9734 38.5067Z" fill="#599300"/>
<path d="M20 39.5066H34.6667C34.6667 39.5066 35.3334 39.5066 35.3334 40.1733V41.5066C35.3334 41.5066 35.3334 42.1733 34.6667 42.1733H20C20 42.1733 19.3334 42.1733 19.3334 41.5066V40.1733C19.3334 40.1733 19.3334 39.5066 20 39.5066Z" fill="#599300"/>
<path d="M17.3334 34.8401H32.0001C32.0001 34.8401 32.6667 34.8401 32.6667 35.5068V36.8401C32.6667 36.8401 32.6667 37.5068 32.0001 37.5068H17.3334C17.3334 37.5068 16.6667 37.5068 16.6667 36.8401V35.5068C16.6667 35.5068 16.6667 34.8401 17.3334 34.8401Z" fill="#599300"/>
<path d="M17.3334 44.1733H32.0001C32.0001 44.1733 32.6667 44.1733 32.6667 44.84V46.1733C32.6667 46.1733 32.6667 46.84 32.0001 46.84H17.3334C17.3334 46.84 16.6667 46.84 16.6667 46.1733V44.84C16.6667 44.84 16.6667 44.1733 17.3334 44.1733Z" fill="#599300"/>
</g>
<defs>
<clipPath id="clip0_17129_11029">
<rect width="32" height="32" fill="white" transform="translate(16.3334 16)"/>
</clipPath>
</defs>
</svg>
