<svg width="49" height="49" viewBox="0 0 49 49" fill="none" xmlns="http://www.w3.org/2000/svg">
<g clip-path="url(#clip0_17122_10545)">
<path d="M46.75 16.6616C46.2196 16.6616 45.7109 16.8723 45.3358 17.2474C44.9607 17.6225 44.75 18.1312 44.75 18.6616V21.6616C44.75 21.9268 44.6446 22.1812 44.4571 22.3687C44.2696 22.5563 44.0152 22.6616 43.75 22.6616H40.75C40.4848 22.6616 40.2304 22.5563 40.0429 22.3687C39.8554 22.1812 39.75 21.9268 39.75 21.6616V3.46162C39.75 2.71901 39.455 2.00682 38.9299 1.48172C38.4048 0.95662 37.6926 0.661621 36.95 0.661621L30.55 0.661621C29.8074 0.661621 29.0952 0.95662 28.5701 1.48172C28.045 2.00682 27.75 2.71901 27.75 3.46162V21.6616C27.75 21.9268 27.6446 22.1812 27.4571 22.3687C27.2696 22.5563 27.0152 22.6616 26.75 22.6616H22.75C22.4848 22.6616 22.2304 22.5563 22.0429 22.3687C21.8554 22.1812 21.75 21.9268 21.75 21.6616V3.46162C21.75 3.09392 21.6776 2.72982 21.5369 2.39011C21.3961 2.0504 21.1899 1.74173 20.9299 1.48172C20.6699 1.22172 20.3612 1.01547 20.0215 0.874758C19.6818 0.734045 19.3177 0.661621 18.95 0.661621L12.55 0.661621C11.8074 0.661621 11.0952 0.95662 10.5701 1.48172C10.045 2.00682 9.75 2.71901 9.75 3.46162V21.6616C9.75 21.9268 9.64464 22.1812 9.45711 22.3687C9.26957 22.5563 9.01522 22.6616 8.75 22.6616H5.75C5.48478 22.6616 5.23043 22.5563 5.04289 22.3687C4.85536 22.1812 4.75 21.9268 4.75 21.6616V18.6616C4.75 18.1312 4.53929 17.6225 4.16421 17.2474C3.78914 16.8723 3.28043 16.6616 2.75 16.6616C2.21957 16.6616 1.71086 16.8723 1.33579 17.2474C0.960714 17.6225 0.75 18.1312 0.75 18.6616L0.75 38.6616C0.75 39.9748 1.00866 41.2752 1.5112 42.4885C2.01375 43.7017 2.75035 44.8041 3.67893 45.7327C5.5543 47.6081 8.09784 48.6616 10.75 48.6616H38.75C41.4022 48.6616 43.9457 47.6081 45.8211 45.7327C47.6964 43.8573 48.75 41.3138 48.75 38.6616V18.6616C48.75 18.1312 48.5393 17.6225 48.1642 17.2474C47.7891 16.8723 47.2804 16.6616 46.75 16.6616ZM31.75 5.66162C31.75 5.3964 31.8554 5.14205 32.0429 4.95451C32.2304 4.76698 32.4848 4.66162 32.75 4.66162H34.75C35.0152 4.66162 35.2696 4.76698 35.4571 4.95451C35.6446 5.14205 35.75 5.3964 35.75 5.66162V14.6616C35.75 14.9268 35.6446 15.1812 35.4571 15.3687C35.2696 15.5563 35.0152 15.6616 34.75 15.6616H32.75C32.4848 15.6616 32.2304 15.5563 32.0429 15.3687C31.8554 15.1812 31.75 14.9268 31.75 14.6616V5.66162ZM13.75 5.66162C13.75 5.5303 13.7759 5.40026 13.8261 5.27894C13.8764 5.15761 13.95 5.04737 14.0429 4.95451C14.1358 4.86166 14.246 4.788 14.3673 4.73774C14.4886 4.68749 14.6187 4.66162 14.75 4.66162H16.75C17.0152 4.66162 17.2696 4.76698 17.4571 4.95451C17.6446 5.14205 17.75 5.3964 17.75 5.66162V14.6616C17.75 14.9268 17.6446 15.1812 17.4571 15.3687C17.2696 15.5563 17.0152 15.6616 16.75 15.6616H14.75C14.4848 15.6616 14.2304 15.5563 14.0429 15.3687C13.8554 15.1812 13.75 14.9268 13.75 14.6616V5.66162ZM38.75 44.6616H10.75C9.1587 44.6616 7.63258 44.0295 6.50736 42.9043C5.38214 41.779 4.75 40.2529 4.75 38.6616V27.6616C4.75 27.3964 4.85536 27.142 5.04289 26.9545C5.23043 26.767 5.48478 26.6616 5.75 26.6616H8.75C9.01522 26.6616 9.26957 26.767 9.45711 26.9545C9.64464 27.142 9.75 27.3964 9.75 27.6616V34.3616C9.70803 35.8945 10.2375 37.3883 11.2355 38.5526C12.2335 39.717 13.6287 40.4686 15.15 40.6616H15.75C17.3413 40.6616 18.8674 40.0295 19.9926 38.9043C21.1179 37.779 21.75 36.2529 21.75 34.6616V27.6616C21.75 27.3964 21.8554 27.142 22.0429 26.9545C22.2304 26.767 22.4848 26.6616 22.75 26.6616H26.75C27.0152 26.6616 27.2696 26.767 27.4571 26.9545C27.6446 27.142 27.75 27.3964 27.75 27.6616V34.3616C27.708 35.8945 28.2375 37.3883 29.2355 38.5526C30.2335 39.717 31.6287 40.4686 33.15 40.6616H33.75C35.3413 40.6616 36.8674 40.0295 37.9926 38.9043C39.1179 37.779 39.75 36.2529 39.75 34.6616V27.6616C39.75 27.3964 39.8554 27.142 40.0429 26.9545C40.2304 26.767 40.4848 26.6616 40.75 26.6616H43.75C44.0152 26.6616 44.2696 26.767 44.4571 26.9545C44.6446 27.142 44.75 27.3964 44.75 27.6616V38.6616C44.75 40.2529 44.1179 41.779 42.9926 42.9043C41.8674 44.0295 40.3413 44.6616 38.75 44.6616Z" fill="white"/>
</g>
<defs>
<clipPath id="clip0_17122_10545">
<rect width="48" height="48" fill="white" transform="translate(0.75 0.661621)"/>
</clipPath>
</defs>
</svg>
