<svg width="24" height="25" viewBox="0 0 24 25" fill="none" xmlns="http://www.w3.org/2000/svg">
<path d="M20.62 9.11162C19.57 4.49162 15.54 2.41162 12 2.41162C12 2.41162 12 2.41162 11.99 2.41162C8.45997 2.41162 4.41997 4.48162 3.36997 9.10162C2.19997 14.2616 5.35997 18.6316 8.21997 21.3816C9.27997 22.4016 10.64 22.9116 12 22.9116C13.36 22.9116 14.72 22.4016 15.77 21.3816C18.63 18.6316 21.79 14.2716 20.62 9.11162ZM12 14.1216C10.26 14.1216 8.84997 12.7116 8.84997 10.9716C8.84997 9.23162 10.26 7.82162 12 7.82162C13.74 7.82162 15.15 9.23162 15.15 10.9716C15.15 12.7116 13.74 14.1216 12 14.1216Z" fill="#CDC3FD"/>
</svg>
