<svg width="623" height="57" viewBox="0 0 623 57" fill="none" xmlns="http://www.w3.org/2000/svg">
<path d="M0 15.3283C0 11.6464 2.98477 8.66162 6.66667 8.66162H33.3333C37.0152 8.66162 40 11.6464 40 15.3283V41.995C40 45.6769 37.0152 48.6616 33.3333 48.6616H6.66667C2.98477 48.6616 0 45.6769 0 41.995V15.3283Z" fill="#CDC3FD"/>
<path d="M20 17.9587C20 17.2423 20.5822 16.6549 21.295 16.7261C22.5637 16.8526 23.8093 17.1648 24.9915 17.6545C26.5741 18.31 28.012 19.2708 29.2232 20.482C30.4344 21.6932 31.3951 23.1311 32.0506 24.7136C32.5403 25.8958 32.8525 27.1415 32.9791 28.4102C33.0502 29.123 32.4628 29.7051 31.7464 29.7051C31.0301 29.7051 30.4577 29.1222 30.369 28.4113C30.2532 27.4836 30.0132 26.5737 29.654 25.7063C29.1288 24.4385 28.3591 23.2866 27.3888 22.3163C26.4185 21.346 25.2666 20.5763 23.9988 20.0512C23.1315 19.6919 22.2215 19.4519 21.2938 19.3362C20.5829 19.2475 20 18.675 20 17.9587Z" fill="white"/>
<path d="M20 28.7652C20 28.1317 20.5145 27.6129 21.1456 27.6685C22.4658 27.7849 23.7629 28.1021 24.9915 28.611C26.5741 29.2665 28.012 30.2273 29.2232 31.4385C30.4344 32.6497 31.3951 34.0876 32.0506 35.6701C32.5595 36.8987 32.8767 38.1958 32.9931 39.5161C33.0487 40.1471 32.53 40.6616 31.8965 40.6616C31.263 40.6616 30.7558 40.1466 30.6883 39.5168C30.5792 38.498 30.3248 37.4982 29.9312 36.548C29.391 35.2438 28.5992 34.0588 27.601 33.0606C26.6028 32.0625 25.4178 31.2707 24.1137 30.7305C23.1635 30.3369 22.1636 30.0825 21.1449 29.9733C20.515 29.9059 20 29.3987 20 28.7652Z" fill="white"/>
<path d="M22.5052 18.2289C22.658 17.5291 22.2145 16.831 21.503 16.7485C19.8228 16.5536 18.1164 16.6869 16.4798 17.1456C14.4258 17.7213 12.5443 18.792 11.0002 20.2639C9.45618 21.7358 8.29668 23.5639 7.62335 25.588C7.08686 27.2008 6.87206 28.8988 6.98635 30.5864C7.03475 31.3011 7.71077 31.7775 8.41715 31.6584C9.12353 31.5392 9.59105 30.8693 9.56031 30.1536C9.50589 28.8867 9.68237 27.6168 10.0849 26.4068C10.6243 24.7853 11.5532 23.3207 12.7901 22.1416C14.0271 20.9625 15.5344 20.1047 17.1799 19.6435C18.4078 19.2993 19.6847 19.1838 20.9475 19.2988C21.6609 19.3637 22.3524 18.9288 22.5052 18.2289Z" fill="white"/>
<path d="M7.21741 28.7921C7.21741 28.1437 7.74299 27.6181 8.39133 27.6181H31.8696C32.5179 27.6181 33.0435 28.1437 33.0435 28.7921C33.0435 29.4404 32.5179 29.966 31.8696 29.966H8.39133C7.74299 29.966 7.21741 29.4404 7.21741 28.7921Z" fill="white"/>
<path d="M8.26089 40.6616C7.54052 40.6616 6.95654 40.0776 6.95654 39.3573V29.4467C6.95654 29.0131 7.30806 28.6616 7.74166 28.6616H9.56524V39.3573C9.56524 40.0776 8.98126 40.6616 8.26089 40.6616Z" fill="white"/>
<path d="M62.6836 17.603V28.4038H69.4219C73.0352 28.4038 75.0859 26.4507 75.0859 22.9937C75.0859 19.6147 72.8984 17.603 69.2656 17.603H62.6836ZM62.6836 31.5093V42.6616H59.168V14.478H69.7344C75.1641 14.478 78.7188 17.7983 78.7188 22.8765C78.7188 26.8022 76.5898 29.8491 73.0547 30.9624L79.5781 42.6616H75.457L69.4219 31.5093H62.6836ZM99.3047 22.3491V42.6616H96.082V39.3608H96.0039C94.793 41.7046 92.6836 43.0132 89.5586 43.0132C85.125 43.0132 82.5273 40.1421 82.5273 35.5327V22.3491H85.9258V34.9272C85.9258 38.228 87.4688 40.0054 90.6133 40.0054C93.9141 40.0054 95.9062 37.7397 95.9062 34.2827V22.3491H99.3047ZM103.719 42.6616V22.3491H106.922V25.6694H107C107.664 23.4233 109.539 21.9976 111.922 21.9976C112.508 21.9976 113.016 22.0952 113.289 22.1343V25.4351C113.016 25.3374 112.293 25.2397 111.473 25.2397C108.836 25.2397 107.117 27.1343 107.117 30.0054V42.6616H103.719ZM119.637 31.3726L128.621 22.3491H132.742L123.934 31.1187L133.016 42.6616H129.07L121.531 33.2085L119.637 35.0054V42.6616H116.238V14.478H119.637V31.3726ZM135.652 42.6616V14.478H139.051V42.6616H135.652ZM150.34 40.1226C153.543 40.1226 156.004 37.8765 156.004 34.9468V33.2866L150.574 33.6187C147.84 33.7944 146.277 35.0054 146.277 36.9194C146.277 38.853 147.898 40.1226 150.34 40.1226ZM149.578 43.0132C145.535 43.0132 142.82 40.5718 142.82 36.9194C142.82 33.4429 145.496 31.2554 150.184 30.9819L156.004 30.6499V28.9507C156.004 26.4702 154.363 24.9858 151.551 24.9858C148.934 24.9858 147.293 26.2163 146.863 28.2085H143.582C143.816 24.6929 146.824 21.9976 151.629 21.9976C156.395 21.9976 159.402 24.5757 159.402 28.6187V42.6616H156.18V39.1655H156.102C154.891 41.4897 152.312 43.0132 149.578 43.0132ZM163.719 42.6616V22.3491H166.922V25.5913H167C168.133 23.4038 170.301 21.9976 173.445 21.9976C177.898 21.9976 180.477 24.8687 180.477 29.478V42.6616H177.078V30.0835C177.078 26.8022 175.535 25.0054 172.41 25.0054C169.207 25.0054 167.117 27.271 167.117 30.7085V42.6616H163.719ZM192.508 43.0132C187.332 43.0132 183.816 38.8726 183.816 32.5054C183.816 26.1382 187.312 21.9976 192.43 21.9976C195.34 21.9976 197.684 23.4233 198.895 25.6499H198.973V14.478H202.371V42.6616H199.129V39.2241H199.07C197.762 41.5679 195.438 43.0132 192.508 43.0132ZM193.152 24.9858C189.559 24.9858 187.293 27.9155 187.293 32.5054C187.293 37.1147 189.559 40.0249 193.152 40.0249C196.648 40.0249 198.992 37.0562 198.992 32.5054C198.992 27.9741 196.648 24.9858 193.152 24.9858ZM239.461 31.0015C239.461 38.6187 235.027 43.1304 227.508 43.1304C219.637 43.1304 214.598 37.3882 214.598 28.4233C214.598 19.6147 219.617 14.0093 227.508 14.0093C233.602 14.0093 238.23 17.6226 239.285 23.228H235.594C234.422 19.4194 231.473 17.2515 227.508 17.2515C221.707 17.2515 218.211 21.4312 218.211 28.4038C218.211 35.4937 221.766 39.8882 227.508 39.8882C232.508 39.8882 235.945 36.646 235.945 31.9194V31.4116H227.996V28.3257H239.461V31.0015ZM243.621 42.6616V14.478H247.02V42.6616H243.621ZM260.027 43.0132C254.402 43.0132 250.613 38.9702 250.613 32.5054C250.613 26.021 254.402 21.9976 260.027 21.9976C265.633 21.9976 269.422 26.021 269.422 32.5054C269.422 38.9702 265.633 43.0132 260.027 43.0132ZM260.027 40.0249C263.621 40.0249 265.965 37.2905 265.965 32.5054C265.965 27.7202 263.621 24.9858 260.027 24.9858C256.434 24.9858 254.07 27.7202 254.07 32.5054C254.07 37.2905 256.434 40.0249 260.027 40.0249ZM282.957 43.0132C279.988 43.0132 277.664 41.5679 276.355 39.2241H276.277V42.6616H273.035V14.478H276.434V25.7476H276.512C277.781 23.4233 280.145 21.9976 283.016 21.9976C288.133 21.9976 291.59 26.1382 291.59 32.5054C291.59 38.8921 288.152 43.0132 282.957 43.0132ZM282.293 24.9858C278.855 24.9858 276.414 27.9937 276.414 32.5054C276.414 37.0366 278.855 40.0249 282.293 40.0249C285.887 40.0249 288.113 37.1538 288.113 32.5054C288.113 27.896 285.887 24.9858 282.293 24.9858ZM301.746 40.1226C304.949 40.1226 307.41 37.8765 307.41 34.9468V33.2866L301.98 33.6187C299.246 33.7944 297.684 35.0054 297.684 36.9194C297.684 38.853 299.305 40.1226 301.746 40.1226ZM300.984 43.0132C296.941 43.0132 294.227 40.5718 294.227 36.9194C294.227 33.4429 296.902 31.2554 301.59 30.9819L307.41 30.6499V28.9507C307.41 26.4702 305.77 24.9858 302.957 24.9858C300.34 24.9858 298.699 26.2163 298.27 28.2085H294.988C295.223 24.6929 298.23 21.9976 303.035 21.9976C307.801 21.9976 310.809 24.5757 310.809 28.6187V42.6616H307.586V39.1655H307.508C306.297 41.4897 303.719 43.0132 300.984 43.0132ZM315.301 42.6616V14.478H318.699V42.6616H315.301ZM330.672 34.9077H334.207C334.539 37.9546 337.43 39.9663 341.453 39.9663C345.262 39.9663 348.035 37.9546 348.035 35.1812C348.035 32.7983 346.375 31.3335 342.586 30.3569L338.973 29.4194C333.777 28.0913 331.473 25.8062 331.473 21.978C331.473 17.2905 335.574 14.0093 341.434 14.0093C347.039 14.0093 351.102 17.3296 351.258 22.0562H347.742C347.43 19.0288 344.988 17.1733 341.316 17.1733C337.664 17.1733 335.125 19.0679 335.125 21.8218C335.125 23.9507 336.688 25.2202 340.516 26.2163L343.465 26.9976C349.305 28.4624 351.668 30.7085 351.668 34.7515C351.668 39.9077 347.605 43.1304 341.121 43.1304C335.145 43.1304 331.004 39.8882 330.672 34.9077ZM363.387 24.9468C360.203 24.9468 357.977 27.3882 357.762 30.7671H368.797C368.719 27.3687 366.59 24.9468 363.387 24.9468ZM368.719 36.8413H372.059C371.473 40.396 368.035 43.0132 363.602 43.0132C357.781 43.0132 354.246 38.9702 354.246 32.5835C354.246 26.2749 357.84 21.9976 363.445 21.9976C368.934 21.9976 372.312 25.9819 372.312 32.1343V33.4233H357.742V33.6187C357.742 37.5054 360.027 40.064 363.68 40.064C366.258 40.064 368.152 38.7554 368.719 36.8413ZM375.75 42.6616V22.3491H378.953V25.6694H379.031C379.695 23.4233 381.57 21.9976 383.953 21.9976C384.539 21.9976 385.047 22.0952 385.32 22.1343V25.4351C385.047 25.3374 384.324 25.2397 383.504 25.2397C380.867 25.2397 379.148 27.1343 379.148 30.0054V42.6616H375.75ZM404.754 22.3491L397.293 42.6616H393.816L386.336 22.3491H389.91L395.516 39.0483H395.594L401.219 22.3491H404.754ZM407.605 42.6616V22.3491H411.004V42.6616H407.605ZM409.305 18.9312C408.152 18.9312 407.195 17.9741 407.195 16.8218C407.195 15.6499 408.152 14.7124 409.305 14.7124C410.477 14.7124 411.434 15.6499 411.434 16.8218C411.434 17.9741 410.477 18.9312 409.305 18.9312ZM432.469 29.0093H429.148C428.66 26.8022 426.941 24.9858 423.953 24.9858C420.438 24.9858 418.055 27.896 418.055 32.5054C418.055 37.2319 420.477 40.0249 423.992 40.0249C426.766 40.0249 428.582 38.5601 429.168 36.1187H432.508C431.98 40.1616 428.582 43.0132 423.973 43.0132C418.348 43.0132 414.598 39.0483 414.598 32.5054C414.598 26.0991 418.328 21.9976 423.934 21.9976C429.012 21.9976 432.039 25.3569 432.469 29.0093ZM443.777 24.9468C440.594 24.9468 438.367 27.3882 438.152 30.7671H449.188C449.109 27.3687 446.98 24.9468 443.777 24.9468ZM449.109 36.8413H452.449C451.863 40.396 448.426 43.0132 443.992 43.0132C438.172 43.0132 434.637 38.9702 434.637 32.5835C434.637 26.2749 438.23 21.9976 443.836 21.9976C449.324 21.9976 452.703 25.9819 452.703 32.1343V33.4233H438.133V33.6187C438.133 37.5054 440.418 40.064 444.07 40.064C446.648 40.064 448.543 38.7554 449.109 36.8413ZM455.789 27.9546C455.789 24.478 458.895 21.9976 463.367 21.9976C467.566 21.9976 470.652 24.4976 470.809 27.9351H467.566C467.332 25.9819 465.75 24.771 463.25 24.771C460.77 24.771 459.129 26.0015 459.129 27.7788C459.129 29.1851 460.203 30.1226 462.508 30.7085L465.652 31.4702C469.754 32.5054 471.238 33.9897 471.238 36.978C471.238 40.5132 467.898 43.0132 463.152 43.0132C458.699 43.0132 455.594 40.5913 455.242 36.9976H458.641C459.012 39.1069 460.613 40.2397 463.367 40.2397C466.121 40.2397 467.82 39.0679 467.82 37.2319C467.82 35.7866 466.98 35.0054 464.695 34.3999L461.121 33.4819C457.547 32.564 455.789 30.728 455.789 27.9546Z" fill="white"/>
</svg>
