<svg width="355" height="40" viewBox="0 0 355 40" fill="none" xmlns="http://www.w3.org/2000/svg">
<path d="M0 10.4762C0 7.84624 2.13198 5.71426 4.76191 5.71426H23.8095C26.4395 5.71426 28.5714 7.84624 28.5714 10.4762V29.5238C28.5714 32.1537 26.4395 34.2857 23.8095 34.2857H4.76191C2.13198 34.2857 0 32.1537 0 29.5238V10.4762Z" fill="#4158EE"/>
<path d="M14.2857 12.8647C14.2857 12.3871 14.6738 11.9955 15.149 12.0429C15.9948 12.1273 16.8253 12.3354 17.6134 12.6619C18.6684 13.0989 19.627 13.7394 20.4345 14.5469C21.242 15.3543 21.8825 16.3129 22.3195 17.3679C22.6459 18.1561 22.854 18.9865 22.9384 19.8323C22.9858 20.3075 22.5942 20.6956 22.1167 20.6956C21.6391 20.6956 21.2575 20.307 21.1984 19.8331C21.1212 19.2146 20.9612 18.608 20.7217 18.0298C20.3716 17.1846 19.8585 16.4166 19.2116 15.7698C18.5647 15.1229 17.7968 14.6098 16.9516 14.2597C16.3734 14.0202 15.7667 13.8602 15.1482 13.783C14.6743 13.7239 14.2857 13.3423 14.2857 12.8647Z" fill="white"/>
<path d="M14.2857 20.069C14.2857 19.6467 14.6288 19.3008 15.0494 19.3379C15.9296 19.4155 16.7943 19.627 17.6134 19.9662C18.6684 20.4032 19.627 21.0437 20.4345 21.8512C21.242 22.6587 21.8825 23.6173 22.3195 24.6723C22.6587 25.4914 22.8702 26.3561 22.9478 27.2363C22.9849 27.657 22.639 28 22.2167 28C21.7944 28 21.4562 27.6566 21.4113 27.2367C21.3385 26.5576 21.1689 25.891 20.9065 25.2576C20.5464 24.3881 20.0185 23.5981 19.3531 22.9326C18.6876 22.2672 17.8976 21.7393 17.0282 21.3792C16.3947 21.1168 15.7281 20.9472 15.049 20.8744C14.6291 20.8295 14.2857 20.4913 14.2857 20.069Z" fill="white"/>
<path d="M15.9559 13.0449C16.0577 12.5783 15.7621 12.1129 15.2877 12.0579C14.1676 11.928 13.03 12.0168 11.9389 12.3226C10.5696 12.7064 9.31525 13.4202 8.28588 14.4015C7.25651 15.3827 6.48351 16.6015 6.03463 17.9509C5.67697 19.0261 5.53377 20.1581 5.60996 21.2832C5.64223 21.7596 6.09291 22.0772 6.56383 21.9978C7.03475 21.9184 7.34643 21.4717 7.32593 20.9946C7.28965 20.1501 7.4073 19.3035 7.67564 18.4968C8.03525 17.4157 8.65451 16.4394 9.47916 15.6533C10.3038 14.8672 11.3087 14.2954 12.4057 13.9879C13.2243 13.7585 14.0755 13.6814 14.9174 13.7581C15.393 13.8014 15.854 13.5114 15.9559 13.0449Z" fill="white"/>
<path d="M5.764 20.0869C5.764 19.6547 6.11439 19.3043 6.54661 19.3043H22.1988C22.631 19.3043 22.9814 19.6547 22.9814 20.0869C22.9814 20.5191 22.631 20.8695 22.1988 20.8695H6.54661C6.11439 20.8695 5.764 20.5191 5.764 20.0869Z" fill="white"/>
<path d="M6.45965 28C5.97941 28 5.59009 27.6107 5.59009 27.1304V20.5234C5.59009 20.2343 5.82443 20 6.1135 20H7.32922V27.1304C7.32922 27.6107 6.9399 28 6.45965 28Z" fill="white"/>
<path d="M44.8454 12.101V19.8158H49.6585C52.2394 19.8158 53.7042 18.4208 53.7042 15.9515C53.7042 13.5379 52.1417 12.101 49.5469 12.101H44.8454ZM44.8454 22.034V30H42.3343V9.86886H49.8817C53.76 9.86886 56.2991 12.2405 56.2991 15.8677C56.2991 18.6719 54.7785 20.8482 52.2533 21.6434L56.9129 30H53.9693L49.6585 22.034H44.8454ZM71.0033 15.4911V30H68.7014V27.6423H68.6456C67.7807 29.3164 66.274 30.2511 64.0418 30.2511C60.875 30.2511 59.0195 28.2003 59.0195 24.9079V15.4911H61.447V24.4754C61.447 26.8331 62.5491 28.1027 64.7952 28.1027C67.1529 28.1027 68.5759 26.4844 68.5759 24.0151V15.4911H71.0033ZM74.1562 30V15.4911H76.4442V17.8627H76.5C76.9743 16.2584 78.3136 15.24 80.0156 15.24C80.4341 15.24 80.7969 15.3097 80.9922 15.3376V17.6953C80.7969 17.6256 80.2807 17.5558 79.6948 17.5558C77.8114 17.5558 76.5837 18.909 76.5837 20.9598V30H74.1562ZM85.5262 21.9364L91.9436 15.4911H94.8873L88.5954 21.755L95.0826 30H92.2645L86.8795 23.2478L85.5262 24.5312V30H83.0988V9.86886H85.5262V21.9364ZM96.966 30V9.86886H99.3934V30H96.966ZM107.457 28.1864C109.745 28.1864 111.503 26.582 111.503 24.4894V23.3036L107.624 23.5407C105.671 23.6663 104.555 24.5312 104.555 25.8984C104.555 27.2796 105.713 28.1864 107.457 28.1864ZM106.913 30.2511C104.025 30.2511 102.086 28.5073 102.086 25.8984C102.086 23.4152 103.997 21.8527 107.345 21.6574L111.503 21.4202V20.2065C111.503 18.4347 110.331 17.3744 108.322 17.3744C106.453 17.3744 105.281 18.2533 104.974 19.6763H102.63C102.797 17.1652 104.946 15.24 108.378 15.24C111.782 15.24 113.93 17.0815 113.93 19.9693V30H111.628V27.5028H111.573C110.708 29.1629 108.866 30.2511 106.913 30.2511ZM117.013 30V15.4911H119.301V17.8069H119.357C120.166 16.2444 121.715 15.24 123.961 15.24C127.142 15.24 128.983 17.2907 128.983 20.5831V30H126.556V21.0156C126.556 18.6719 125.454 17.3884 123.222 17.3884C120.934 17.3884 119.441 19.0067 119.441 21.4621V30H117.013ZM137.577 30.2511C133.88 30.2511 131.369 27.2935 131.369 22.7455C131.369 18.1975 133.866 15.24 137.521 15.24C139.6 15.24 141.274 16.2584 142.139 17.8488H142.195V9.86886H144.622V30H142.306V27.5446H142.265C141.33 29.2187 139.67 30.2511 137.577 30.2511ZM138.037 17.3744C135.47 17.3744 133.852 19.4671 133.852 22.7455C133.852 26.0379 135.47 28.1166 138.037 28.1166C140.535 28.1166 142.209 25.9961 142.209 22.7455C142.209 19.5089 140.535 17.3744 138.037 17.3744ZM171.115 21.6713C171.115 27.1122 167.948 30.3348 162.577 30.3348C156.955 30.3348 153.355 26.2333 153.355 19.8298C153.355 13.5379 156.941 9.53404 162.577 9.53404C166.93 9.53404 170.236 12.115 170.989 16.1189H168.353C167.516 13.3984 165.409 11.8499 162.577 11.8499C158.434 11.8499 155.936 14.8354 155.936 19.8158C155.936 24.88 158.475 28.019 162.577 28.019C166.148 28.019 168.604 25.7031 168.604 22.327V21.9643H162.926V19.76H171.115V21.6713ZM174.086 30V9.86886H176.514V30H174.086ZM185.805 30.2511C181.787 30.2511 179.081 27.3633 179.081 22.7455C179.081 18.1138 181.787 15.24 185.805 15.24C189.809 15.24 192.516 18.1138 192.516 22.7455C192.516 27.3633 189.809 30.2511 185.805 30.2511ZM185.805 28.1166C188.372 28.1166 190.046 26.1635 190.046 22.7455C190.046 19.3276 188.372 17.3744 185.805 17.3744C183.238 17.3744 181.55 19.3276 181.55 22.7455C181.55 26.1635 183.238 28.1166 185.805 28.1166ZM202.184 30.2511C200.063 30.2511 198.403 29.2187 197.468 27.5446H197.412V30H195.097V9.86886H197.524V17.9185H197.58C198.487 16.2584 200.175 15.24 202.225 15.24C205.881 15.24 208.35 18.1975 208.35 22.7455C208.35 27.3075 205.895 30.2511 202.184 30.2511ZM201.709 17.3744C199.254 17.3744 197.51 19.5229 197.51 22.7455C197.51 25.9821 199.254 28.1166 201.709 28.1166C204.276 28.1166 205.867 26.0658 205.867 22.7455C205.867 19.4531 204.276 17.3744 201.709 17.3744ZM215.604 28.1864C217.892 28.1864 219.65 26.582 219.65 24.4894V23.3036L215.772 23.5407C213.819 23.6663 212.703 24.5312 212.703 25.8984C212.703 27.2796 213.86 28.1864 215.604 28.1864ZM215.06 30.2511C212.172 30.2511 210.233 28.5073 210.233 25.8984C210.233 23.4152 212.145 21.8527 215.493 21.6574L219.65 21.4202V20.2065C219.65 18.4347 218.478 17.3744 216.469 17.3744C214.6 17.3744 213.428 18.2533 213.121 19.6763H210.777C210.945 17.1652 213.093 15.24 216.525 15.24C219.929 15.24 222.078 17.0815 222.078 19.9693V30H219.776V27.5028H219.72C218.855 29.1629 217.013 30.2511 215.06 30.2511ZM225.286 30V9.86886H227.714V30H225.286ZM236.266 24.4615H238.791C239.028 26.6378 241.093 28.0748 243.967 28.0748C246.687 28.0748 248.668 26.6378 248.668 24.6568C248.668 22.9548 247.482 21.9085 244.776 21.2109L242.195 20.5413C238.484 19.5926 236.838 17.9604 236.838 15.226C236.838 11.8778 239.767 9.53404 243.953 9.53404C247.956 9.53404 250.858 11.9057 250.97 15.2818H248.459C248.235 13.1194 246.492 11.7941 243.869 11.7941C241.26 11.7941 239.446 13.1473 239.446 15.1144C239.446 16.635 240.563 17.5419 243.297 18.2533L245.403 18.8114C249.575 19.8577 251.263 21.4621 251.263 24.3499C251.263 28.0329 248.361 30.3348 243.729 30.3348C239.46 30.3348 236.503 28.019 236.266 24.4615ZM259.633 17.3465C257.359 17.3465 255.769 19.0904 255.616 21.5039H263.498C263.442 19.0765 261.921 17.3465 259.633 17.3465ZM263.442 25.8426H265.828C265.409 28.3817 262.954 30.2511 259.787 30.2511C255.629 30.2511 253.104 27.3633 253.104 22.8013C253.104 18.2952 255.671 15.24 259.675 15.24C263.595 15.24 266.009 18.0859 266.009 22.4805V23.4012H255.602V23.5407C255.602 26.317 257.234 28.1445 259.843 28.1445C261.684 28.1445 263.037 27.2098 263.442 25.8426ZM268.464 30V15.4911H270.752V17.8627H270.808C271.282 16.2584 272.622 15.24 274.324 15.24C274.742 15.24 275.105 15.3097 275.3 15.3376V17.6953C275.105 17.6256 274.589 17.5558 274.003 17.5558C272.119 17.5558 270.892 18.909 270.892 20.9598V30H268.464ZM289.181 15.4911L283.852 30H281.369L276.026 15.4911H278.579L282.583 27.4191H282.638L286.656 15.4911H289.181ZM291.218 30V15.4911H293.646V30H291.218ZM292.432 13.0497C291.609 13.0497 290.925 12.3661 290.925 11.543C290.925 10.7059 291.609 10.0363 292.432 10.0363C293.269 10.0363 293.953 10.7059 293.953 11.543C293.953 12.3661 293.269 13.0497 292.432 13.0497ZM308.978 20.2483H306.606C306.257 18.6719 305.03 17.3744 302.895 17.3744C300.384 17.3744 298.682 19.4531 298.682 22.7455C298.682 26.1217 300.412 28.1166 302.923 28.1166C304.904 28.1166 306.201 27.0703 306.62 25.3265H309.006C308.629 28.2143 306.201 30.2511 302.909 30.2511C298.891 30.2511 296.213 27.4191 296.213 22.7455C296.213 18.1696 298.877 15.24 302.881 15.24C306.508 15.24 308.671 17.6395 308.978 20.2483ZM317.055 17.3465C314.781 17.3465 313.191 19.0904 313.037 21.5039H320.92C320.864 19.0765 319.343 17.3465 317.055 17.3465ZM320.864 25.8426H323.249C322.831 28.3817 320.376 30.2511 317.209 30.2511C313.051 30.2511 310.526 27.3633 310.526 22.8013C310.526 18.2952 313.093 15.24 317.097 15.24C321.017 15.24 323.431 18.0859 323.431 22.4805V23.4012H313.023V23.5407C313.023 26.317 314.656 28.1445 317.265 28.1445C319.106 28.1445 320.459 27.2098 320.864 25.8426ZM325.635 19.495C325.635 17.0117 327.853 15.24 331.048 15.24C334.047 15.24 336.252 17.0257 336.363 19.481H334.047C333.88 18.0859 332.75 17.221 330.964 17.221C329.193 17.221 328.021 18.0999 328.021 19.3694C328.021 20.3739 328.788 21.0435 330.434 21.4621L332.68 22.0061C335.61 22.7455 336.67 23.8058 336.67 25.9403C336.67 28.4654 334.285 30.2511 330.895 30.2511C327.714 30.2511 325.496 28.5212 325.244 25.9542H327.672C327.937 27.4609 329.081 28.2701 331.048 28.2701C333.015 28.2701 334.229 27.433 334.229 26.1217C334.229 25.0893 333.629 24.5312 331.997 24.0988L329.444 23.4431C326.891 22.7874 325.635 21.476 325.635 19.495Z" fill="#232323"/>
</svg>
