<svg width="65" height="64" viewBox="0 0 65 64" fill="none" xmlns="http://www.w3.org/2000/svg">
<path d="M0.666748 32C0.666748 14.3269 14.9936 0 32.6667 0C50.3399 0 64.6667 14.3269 64.6667 32C64.6667 49.6731 50.3399 64 32.6667 64C14.9936 64 0.666748 49.6731 0.666748 32Z" fill="#DCFCFD"/>
<g clip-path="url(#clip0_17248_417)">
<path fill-rule="evenodd" clip-rule="evenodd" d="M35.9554 18.3066C36.2822 17.418 35.8269 16.4327 34.9383 16.1059C34.0498 15.779 33.0645 16.2344 32.7376 17.1229L31.4858 20.5258C29.5228 20.591 27.6093 20.8163 25.9889 21.2019C24.8295 21.4777 23.9988 22.3723 23.6722 23.4173L22.6187 26.7879C29.3639 26.1443 36.0137 26.1443 42.7589 26.788L41.7054 23.4173C41.3787 22.3723 40.5481 21.4777 39.3887 21.2019C38.1076 20.8971 36.6433 20.6924 35.1162 20.5878L35.9554 18.3066ZM21.6919 29.7533C21.9515 29.7256 22.211 29.6988 22.4703 29.6731C22.7706 29.6432 23.0707 29.6147 23.3706 29.5874C30.5045 28.9395 37.5298 29.0323 44.6949 29.8659C46.4126 30.0658 47.7813 31.5705 47.5968 33.3937C47.3065 36.2671 46.504 38.8615 45.1659 41.3767C44.8037 41.0117 44.123 40.3424 43.2222 39.7991C42.0217 39.0747 40.6254 38.6655 39.0169 38.6655C37.4084 38.6655 36.0122 39.0747 34.8116 39.7991C33.8625 40.3717 33.1575 41.0841 32.8123 41.4329L32.778 41.4677L32.7083 41.5378L32.6674 41.5787L32.6252 41.5365L32.5563 41.467L32.5226 41.4329C32.1773 41.0841 31.4724 40.3717 30.5233 39.7991C29.3227 39.0747 27.9264 38.6655 26.3179 38.6655C24.7094 38.6655 23.3132 39.0747 22.1126 39.7991C21.2344 40.3289 20.5652 40.9783 20.1967 41.3488C18.8675 38.8422 18.0699 36.2564 17.7805 33.3937C17.5962 31.5705 18.9647 30.0658 20.6826 29.8659C21.0193 29.8268 21.3558 29.7892 21.6919 29.7533ZM26.3179 41.5225C25.2191 41.5225 24.3348 41.7952 23.5886 42.2455C22.9469 42.6325 22.4506 43.1333 22.1084 43.4786L22.0357 43.552C21.65 43.9394 21.4121 44.1586 21.1349 44.3141C20.8972 44.4475 20.5579 44.5714 19.9684 44.5714H18.381C17.4343 44.5714 16.6667 45.339 16.6667 46.2857C16.6667 47.2325 17.4343 48 18.381 48H19.9684C21.1081 48 22.0306 47.7429 22.8121 47.3045C23.5502 46.8905 24.087 46.3511 24.4597 45.9767L24.4657 45.9707C24.8813 45.5531 25.1008 45.3374 25.3597 45.181C25.5609 45.0597 25.8309 44.9511 26.3179 44.9511C26.8049 44.9511 27.0749 45.0597 27.2761 45.181C27.535 45.3374 27.7545 45.5531 28.1701 45.9707L28.1761 45.9767C28.5489 46.3511 29.0857 46.8905 29.8237 47.3045C30.6052 47.7429 31.5278 48 32.6674 48C33.8071 48 34.7296 47.7429 35.5111 47.3045C36.2492 46.8905 36.786 46.3511 37.1587 45.9767L37.1647 45.9705C37.5803 45.5531 37.7998 45.3374 38.0587 45.181C38.2599 45.0597 38.5299 44.9511 39.0169 44.9511C39.5039 44.9511 39.7739 45.0597 39.9751 45.181C40.2341 45.3374 40.4535 45.5531 40.869 45.9707L40.8752 45.9767C41.248 46.3513 41.7847 46.8905 42.5227 47.3045C43.3042 47.7429 44.2267 48 45.3664 48H46.9538C47.9006 48 48.6681 47.2325 48.6681 46.2857C48.6681 45.339 47.9006 44.5714 46.9538 44.5714H45.3664C44.7769 44.5714 44.4377 44.4475 44.2 44.3141C43.9227 44.1586 43.6848 43.9394 43.2992 43.552L43.2265 43.4786C42.8841 43.1333 42.3879 42.6325 41.7463 42.2455C41 41.7952 40.1157 41.5225 39.0169 41.5225C37.9181 41.5225 37.0339 41.7952 36.2875 42.2455C35.6459 42.6325 35.1497 43.1333 34.8074 43.4786L34.7347 43.552C34.349 43.9394 34.1111 44.1586 33.8339 44.3141C33.5963 44.4475 33.257 44.5714 32.6674 44.5714C32.0779 44.5714 31.7386 44.4475 31.5009 44.3141C31.2238 44.1586 30.9858 43.9394 30.6002 43.552L30.5275 43.4786C30.1852 43.1333 29.6889 42.6325 29.0473 42.2455C28.301 41.7952 27.4167 41.5225 26.3179 41.5225Z" fill="#009196"/>
</g>
<defs>
<clipPath id="clip0_17248_417">
<rect width="32" height="32" fill="white" transform="translate(16.6667 16)"/>
</clipPath>
</defs>
</svg>
