<svg width="64" height="65" viewBox="0 0 64 65" fill="none" xmlns="http://www.w3.org/2000/svg">
<path d="M0 32.6616C0 14.9885 14.3269 0.661621 32 0.661621C49.6731 0.661621 64 14.9885 64 32.6616C64 50.3347 49.6731 64.6616 32 64.6616C14.3269 64.6616 0 50.3347 0 32.6616Z" fill="#E7DCFD"/>
<path d="M44.8785 22.1741C44.2676 19.8857 41.9148 18.5298 39.6263 19.1407L38.801 19.3605C37.8845 19.607 37.3432 20.5503 37.5898 21.4613L38.9028 26.3598L33.0986 27.8658L32.761 26.8958C32.5198 26.2098 31.8713 25.7488 31.1424 25.7488C30.4136 25.7488 29.7651 26.2098 29.5239 26.8958L28.795 28.9859L21.7099 30.8188V28.7501C21.7099 28.0373 21.1365 27.4638 20.4237 27.4638C19.7109 27.4638 19.1374 28.0373 19.1374 28.7501V42.8988H18.2799C17.3313 42.8988 16.5649 43.6652 16.5649 44.6138C16.5649 45.5625 17.3313 46.3288 18.2799 46.3288H45.7199C46.6686 46.3288 47.4349 45.5625 47.4349 44.6138C47.4349 43.6652 46.6686 42.8988 45.7199 42.8988H38.3615L34.7868 32.6892L31.4533 33.5521L32.9271 37.7538H29.3578L30.7673 33.7343L26.7692 34.7687L23.9234 42.8988H21.7099V34.3667L39.7925 29.6773L41.143 34.7151C41.3896 35.6315 42.3275 36.1728 43.2439 35.9263L44.0746 35.7066C46.3631 35.0956 47.719 32.7428 47.108 30.4544L44.8785 22.1741ZM27.557 42.8988L28.1573 41.1838H34.1276L34.7279 42.8988H27.557Z" fill="#0F23A9"/>
</svg>
