<svg width="64" height="64" viewBox="0 0 64 64" fill="none" xmlns="http://www.w3.org/2000/svg">
<path d="M0 32C0 14.3269 14.3269 0 32 0C49.6731 0 64 14.3269 64 32C64 49.6731 49.6731 64 32 64C14.3269 64 0 49.6731 0 32Z" fill="#FDDEDE"/>
<path d="M34.6667 22.6667C34.6667 21.6059 34.2453 20.5885 33.4952 19.8383C32.745 19.0882 31.7276 18.6667 30.6667 18.6667H22.6667C21.6059 18.6667 20.5885 19.0882 19.8383 19.8383C19.0882 20.5885 18.6667 21.6059 18.6667 22.6667V44.0001C18.6667 44.3537 18.8072 44.6928 19.0573 44.9429C19.3073 45.1929 19.6465 45.3334 20.0001 45.3334H33.3334C33.687 45.3334 34.0262 45.1929 34.2762 44.9429C34.5263 44.6928 34.6667 44.3537 34.6667 44.0001V41.3334H36.0001C37.0609 41.3334 38.0784 40.912 38.8285 40.1618C39.5787 39.4117 40.0001 38.3943 40.0001 37.3334V28.9641C40.3356 29.1652 40.7113 29.29 41.1005 29.3297C41.4897 29.3694 41.8828 29.3229 42.2521 29.1937C42.6213 29.0644 42.9576 28.8555 43.237 28.5817C43.5165 28.308 43.7323 27.9761 43.8692 27.6096C44.006 27.2431 44.0605 26.851 44.0289 26.4611C43.9973 26.0712 43.8802 25.693 43.6861 25.3534C43.4919 25.0137 43.2254 24.721 42.9055 24.4959C42.5855 24.2707 42.22 24.1188 41.8347 24.0507L44.9427 20.9427L43.0574 19.0574L37.7241 24.3907C37.474 24.6407 37.3335 24.9798 37.3334 25.3334V37.3334C37.3334 37.687 37.1929 38.0262 36.9429 38.2762C36.6928 38.5263 36.3537 38.6667 36.0001 38.6667H34.6667V22.6667ZM21.3334 22.6667C21.3334 22.3131 21.4739 21.974 21.7239 21.7239C21.974 21.4739 22.3131 21.3334 22.6667 21.3334H30.6667C31.0204 21.3334 31.3595 21.4739 31.6096 21.7239C31.8596 21.974 32.0001 22.3131 32.0001 22.6667V28.0001H21.3334V22.6667Z" fill="#C10B0B"/>
</svg>
