<svg width="48" height="49" viewBox="0 0 48 49" fill="none" xmlns="http://www.w3.org/2000/svg">
<g clip-path="url(#clip0_17122_10528)">
<path d="M30.7 30.6616C30.5926 30.6646 30.4888 30.7009 30.4028 30.7654C30.3169 30.8298 30.253 30.9193 30.22 31.0216C29.827 32.3669 29.0083 33.5486 27.8868 34.3893C26.7654 35.23 25.4016 35.6844 24 35.6844C22.5984 35.6844 21.2346 35.23 20.1131 34.3893C18.9917 33.5486 18.173 32.3669 17.78 31.0216C17.747 30.9193 17.6831 30.8298 17.5971 30.7654C17.5112 30.7009 17.4074 30.6646 17.3 30.6616H12.34C9.73072 30.6675 7.20277 29.754 5.19999 28.0816C5.1264 28.0413 5.04387 28.0202 4.95999 28.0202C4.87611 28.0202 4.79357 28.0413 4.71999 28.0816C4.63966 28.1081 4.56776 28.1553 4.51156 28.2185C4.45537 28.2817 4.41688 28.3587 4.39999 28.4416L2.91999 34.6616C2.54012 36.2756 2.53006 37.9547 2.89058 39.5732C3.25111 41.1917 3.97287 42.7078 5.0019 44.008C6.03094 45.3082 7.34061 46.359 8.83298 47.0817C10.3254 47.8045 11.9618 48.1804 13.62 48.1816H34.38C36.0382 48.1804 37.6746 47.8045 39.167 47.0817C40.6594 46.359 41.969 45.3082 42.9981 44.008C44.0271 42.7078 44.7489 41.1917 45.1094 39.5732C45.4699 37.9547 45.4599 36.2756 45.08 34.6616L43.6 28.3816C43.5831 28.2987 43.5446 28.2217 43.4884 28.1585C43.4322 28.0953 43.3603 28.0481 43.28 28.0216C43.2064 27.9813 43.1239 27.9602 43.04 27.9602C42.9561 27.9602 42.8736 27.9813 42.8 28.0216C40.8056 29.7157 38.2768 30.6507 35.66 30.6616H30.7Z" fill="white"/>
<path d="M5.34 10.6616C5.23751 10.6534 5.13441 10.6656 5.03663 10.6974C4.93885 10.7292 4.84832 10.78 4.77026 10.8469C4.69219 10.9138 4.62813 10.9955 4.58174 11.0873C4.53536 11.1791 4.50758 11.2791 4.5 11.3816V20.2816C4.56792 22.2976 5.43031 24.2048 6.89904 25.5874C8.36777 26.9699 10.3236 27.7156 12.34 27.6616H17.3C17.4074 27.6586 17.5112 27.6223 17.5972 27.5578C17.6831 27.4934 17.747 27.4039 17.78 27.3016C18.173 25.9563 18.9917 24.7746 20.1131 23.9339C21.2346 23.0932 22.5984 22.6388 24 22.6388C25.4016 22.6388 26.7654 23.0932 27.8869 23.9339C29.0083 24.7746 29.827 25.9563 30.22 27.3016C30.253 27.4039 30.3169 27.4934 30.4028 27.5578C30.4888 27.6223 30.5926 27.6586 30.7 27.6616H35.66C37.6764 27.7156 39.6322 26.9699 41.101 25.5874C42.5697 24.2048 43.4321 22.2976 43.5 20.2816V11.3816C43.4924 11.2791 43.4646 11.1791 43.4183 11.0873C43.3719 10.9955 43.3078 10.9138 43.2297 10.8469C43.1517 10.78 43.0611 10.7292 42.9634 10.6974C42.8656 10.6656 42.7625 10.6534 42.66 10.6616H33.5C33.3674 10.6616 33.2402 10.6089 33.1464 10.5152C33.0527 10.4214 33 10.2942 33 10.1616V7.16162C33 5.57032 32.3679 4.0442 31.2426 2.91898C30.1174 1.79376 28.5913 1.16162 27 1.16162H21C19.4087 1.16162 17.8826 1.79376 16.7574 2.91898C15.6321 4.0442 15 5.57032 15 7.16162V10.1616C15 10.2942 14.9473 10.4214 14.8536 10.5152C14.7598 10.6089 14.6326 10.6616 14.5 10.6616H5.34ZM19 7.16162C19 6.63119 19.2107 6.12248 19.5858 5.74741C19.9609 5.37233 20.4696 5.16162 21 5.16162H27C27.5304 5.16162 28.0391 5.37233 28.4142 5.74741C28.7893 6.12248 29 6.63119 29 7.16162V10.1616C29 10.2942 28.9473 10.4214 28.8536 10.5152C28.7598 10.6089 28.6326 10.6616 28.5 10.6616H19.5C19.3674 10.6616 19.2402 10.6089 19.1464 10.5152C19.0527 10.4214 19 10.2942 19 10.1616V7.16162Z" fill="white"/>
<path d="M20.5 29.1616C20.5 30.0899 20.8687 30.9801 21.5251 31.6365C22.1815 32.2929 23.0717 32.6616 24 32.6616C24.9283 32.6616 25.8185 32.2929 26.4749 31.6365C27.1313 30.9801 27.5 30.0899 27.5 29.1616C27.5 28.2334 27.1313 27.3431 26.4749 26.6867C25.8185 26.0304 24.9283 25.6616 24 25.6616C23.0717 25.6616 22.1815 26.0304 21.5251 26.6867C20.8687 27.3431 20.5 28.2334 20.5 29.1616Z" fill="white"/>
</g>
<defs>
<clipPath id="clip0_17122_10528">
<rect width="48" height="48" fill="white" transform="translate(0 0.661621)"/>
</clipPath>
</defs>
</svg>
