<svg width="65" height="65" viewBox="0 0 65 65" fill="none" xmlns="http://www.w3.org/2000/svg">
<path d="M0.666626 32.6616C0.666626 14.9885 14.9935 0.661621 32.6666 0.661621C50.3397 0.661621 64.6666 14.9885 64.6666 32.6616C64.6666 50.3347 50.3397 64.6616 32.6666 64.6616C14.9935 64.6616 0.666626 50.3347 0.666626 32.6616Z" fill="#FFF2CB"/>
<path d="M34.1067 17.7284C33.1489 17.635 32.1844 17.635 31.2267 17.7284C30.9949 17.752 30.7705 17.8235 30.5679 17.9384C30.3653 18.0534 30.1887 18.2092 30.0495 18.3961C29.9104 18.5829 29.8116 18.7966 29.7594 19.0237C29.7073 19.2508 29.7029 19.4862 29.7467 19.715L31.2267 27.1417C31.2913 27.4762 31.4704 27.7777 31.7332 27.9945C31.9959 28.2114 32.326 28.3299 32.6667 28.3299C33.0073 28.3299 33.3374 28.2114 33.6001 27.9945C33.8629 27.7777 34.042 27.4762 34.1067 27.1417L35.5867 19.715C35.6322 19.4846 35.6296 19.2472 35.5791 19.0177C35.5286 18.7883 35.4313 18.5718 35.2933 18.3817C35.1495 18.1987 34.9703 18.0465 34.7665 17.9343C34.5626 17.8221 34.3382 17.752 34.1067 17.7284Z" fill="#B99D00"/>
<path d="M24.4266 20.7283C24.1916 20.684 23.9496 20.6933 23.7187 20.7557C23.4878 20.818 23.274 20.9317 23.0933 21.0883C22.7466 21.3994 22.3822 21.7017 22 21.995C21.6666 22.3417 21.3333 22.7017 21.04 23.0617C20.885 23.2434 20.7723 23.4573 20.7101 23.6879C20.6478 23.9184 20.6375 24.16 20.68 24.395C20.7114 24.6264 20.7919 24.8484 20.9161 25.0461C21.0403 25.2439 21.2052 25.4128 21.4 25.5417L27.76 29.7817C27.9971 29.9389 28.2754 30.0225 28.56 30.0217C28.8259 30.0228 29.0872 29.9516 29.3158 29.8156C29.5444 29.6797 29.7317 29.4841 29.8577 29.2499C29.9838 29.0157 30.0437 28.7516 30.0312 28.4859C30.0187 28.2203 29.9341 27.963 29.7866 27.7417L25.5733 21.4483C25.4444 21.2536 25.2755 21.0886 25.0777 20.9645C24.88 20.8403 24.658 20.7598 24.4266 20.7283Z" fill="#B99D00"/>
<path d="M18.4001 29.9951C18.2146 30.1377 18.06 30.3163 17.9454 30.5203C17.8308 30.7242 17.7587 30.9492 17.7334 31.1818C17.7334 31.6618 17.6667 32.1418 17.6667 32.6218C17.6667 33.1018 17.6667 33.5818 17.7334 34.0618C17.7589 34.2924 17.8312 34.5154 17.9459 34.7171C18.0605 34.9189 18.215 35.0951 18.4001 35.2351C18.589 35.3753 18.8055 35.474 19.0353 35.5245C19.2651 35.5751 19.5031 35.5764 19.7334 35.5284L27.1734 34.0484C27.5008 33.9774 27.794 33.7965 28.0042 33.5357C28.2145 33.275 28.3292 32.9501 28.3292 32.6151C28.3292 32.2801 28.2145 31.9552 28.0042 31.6945C27.794 31.4337 27.5008 31.2528 27.1734 31.1818L19.7201 29.7418C19.4945 29.6909 19.2608 29.6871 19.0336 29.7307C18.8065 29.7743 18.5908 29.8643 18.4001 29.9951Z" fill="#B99D00"/>
<path d="M22 43.3284C22.3467 43.675 22.7067 43.995 23.08 44.3017C23.2613 44.4575 23.4751 44.5707 23.7058 44.633C23.9366 44.6953 24.1783 44.7051 24.4133 44.6617C24.6442 44.6286 24.8656 44.5474 25.0631 44.4234C25.2606 44.2994 25.4299 44.1353 25.56 43.9417L29.7733 37.635C29.9803 37.3502 30.0769 36.9998 30.045 36.6491C30.0131 36.2984 29.855 35.9712 29.6 35.7284C29.3605 35.4874 29.0448 35.3371 28.7068 35.303C28.3688 35.269 28.0294 35.3533 27.7467 35.5417L21.4533 39.755C21.2606 39.8845 21.097 40.0528 20.973 40.2492C20.8491 40.4456 20.7676 40.6657 20.7337 40.8954C20.6998 41.1251 20.7143 41.3594 20.7762 41.5832C20.8381 41.807 20.9462 42.0154 21.0933 42.195C21.4 42.5684 21.72 42.9284 22 43.3284Z" fill="#B99D00"/>
<path d="M31.2134 47.595C31.6934 47.595 32.1867 47.6617 32.6667 47.6617C33.1467 47.6617 33.64 47.6617 34.1067 47.595C34.3395 47.5719 34.5648 47.5 34.768 47.3841C34.9712 47.2682 35.1477 47.1107 35.2861 46.9221C35.4244 46.7334 35.5215 46.5178 35.571 46.2891C35.6205 46.0605 35.6213 45.824 35.5734 45.595L34.0934 38.1683C34.0224 37.841 33.8414 37.5478 33.5807 37.3375C33.3199 37.1272 32.995 37.0126 32.66 37.0126C32.3251 37.0126 32.0002 37.1272 31.7394 37.3375C31.4786 37.5478 31.2977 37.841 31.2267 38.1683L29.7467 45.595C29.703 45.8236 29.7068 46.0587 29.7581 46.2857C29.8093 46.5128 29.9067 46.7268 30.0444 46.9145C30.182 47.1022 30.3568 47.2594 30.558 47.3765C30.7591 47.4936 30.9822 47.568 31.2134 47.595Z" fill="#B99D00"/>
<path d="M40.9066 44.6617C41.1417 44.7032 41.383 44.6925 41.6134 44.6303C41.8438 44.568 42.0577 44.4559 42.2399 44.3017C42.6133 43.9995 42.9733 43.6795 43.3199 43.3417C43.6666 43.004 43.9866 42.644 44.2799 42.2617C44.4357 42.0805 44.5489 41.8666 44.6112 41.6359C44.6735 41.4052 44.6833 41.1634 44.6399 40.9284C44.6084 40.6989 44.5277 40.4788 44.4035 40.2833C44.2792 40.0877 44.1143 39.9212 43.9199 39.7951L37.6266 35.5817C37.3439 35.3934 37.0045 35.309 36.6665 35.3431C36.3285 35.3771 36.0128 35.5275 35.7733 35.7684C35.5323 36.0079 35.382 36.3236 35.348 36.6616C35.3139 36.9996 35.3983 37.339 35.5866 37.6217L39.7999 43.9151C39.923 44.1091 40.0848 44.2756 40.2753 44.404C40.4657 44.5325 40.6807 44.6203 40.9066 44.6617Z" fill="#B99D00"/>
<path d="M37 32.6617C36.9999 33.0021 37.1183 33.332 37.3348 33.5947C37.5513 33.8575 37.8525 34.0367 38.1867 34.1017C46.28 35.715 45.7067 35.6084 45.9333 35.6084C46.2878 35.6221 46.6376 35.5241 46.9333 35.3284C47.1201 35.1901 47.2759 35.0143 47.3907 34.8122C47.5055 34.6101 47.5768 34.3863 47.6 34.155C47.6 33.675 47.6667 33.195 47.6667 32.715C47.6667 32.235 47.6667 31.755 47.6 31.275C47.5755 31.0423 47.5037 30.817 47.389 30.6129C47.2744 30.4089 47.1193 30.2304 46.9333 30.0884C46.7448 29.9474 46.5283 29.8482 46.2984 29.7976C46.0684 29.7471 45.8303 29.7462 45.6 29.795L38.16 31.275C37.8406 31.3455 37.5535 31.5198 37.3437 31.7707C37.1338 32.0215 37.0129 32.3349 37 32.6617Z" fill="#B99D00"/>
<path d="M43.3334 21.995C42.9867 21.6617 42.6267 21.3284 42.2534 21.0217C42.0693 20.8706 41.8553 20.7604 41.6254 20.6983C41.3956 20.6363 41.1551 20.6238 40.9201 20.6617C40.6881 20.6964 40.466 20.7796 40.2684 20.906C40.0709 21.0323 39.9022 21.199 39.7734 21.395L35.5467 27.7417C35.4063 27.9626 35.3276 28.2171 35.3187 28.4788C35.3099 28.7405 35.3712 28.9997 35.4964 29.2296C35.6215 29.4596 35.806 29.6518 36.0305 29.7864C36.2551 29.921 36.5116 29.993 36.7734 29.995C37.0618 29.9938 37.3439 29.9106 37.5867 29.755L43.8801 25.5417C44.0819 25.42 44.2561 25.2576 44.3916 25.0647C44.527 24.8718 44.6208 24.6528 44.6667 24.4217C44.7091 24.1866 44.6989 23.9451 44.6366 23.7145C44.5743 23.484 44.4617 23.2701 44.3067 23.0884C43.9334 22.755 43.6134 22.395 43.3334 21.995Z" fill="#B99D00"/>
</svg>
