<svg width="49" height="49" viewBox="0 0 49 49" fill="none" xmlns="http://www.w3.org/2000/svg">
<g clip-path="url(#clip0_17122_10534)">
<path fill-rule="evenodd" clip-rule="evenodd" d="M46.451 1.14382C41.0924 0.473995 35.7246 2.31571 31.906 6.13432L31.2528 6.78756C31.6928 6.99778 32.1058 7.2836 32.4724 7.64512L41.5348 16.5826C41.9098 16.9524 42.213 17.3811 42.4356 17.8473L43.0274 17.2556C46.846 13.437 48.6876 8.0693 48.0178 2.71066L47.9884 2.47558C47.9034 1.79466 47.367 1.25832 46.686 1.17321L46.451 1.14382ZM14.636 19.1616H7.5C7.10218 19.1616 6.72064 19.3197 6.43934 19.601L1.43934 24.601C0.853553 25.1868 0.853553 26.1364 1.43934 26.7222L4.43842 29.7214C4.65292 29.2724 4.94612 28.8516 5.31802 28.4796L14.636 19.1616ZM19.4403 44.7232C19.8893 44.5086 20.3101 44.2154 20.682 43.8436L30 34.5256V41.6616C30 42.0594 29.842 42.441 29.5606 42.7222L24.5606 47.7222C23.9748 48.308 23.0252 48.308 22.4394 47.7222L19.4403 44.7232ZM24.7892 9.3724C24.0082 8.59136 22.7418 8.59136 21.9608 9.3724C21.1798 10.1535 21.1798 11.4198 21.9608 12.2008L23.9002 14.1402L7.43934 30.601C6.85356 31.1868 6.85356 32.1364 7.43934 32.7222L16.4393 41.7222C17.0251 42.308 17.9749 42.308 18.5607 41.7222L35.0214 25.2614L36.9608 27.2008C37.7418 27.9818 39.0082 27.9818 39.7892 27.2008C40.5702 26.4198 40.5702 25.1534 39.7892 24.3724L37.8498 22.433L39.4356 20.8472C39.7182 20.5647 39.8764 20.181 39.875 19.7814C39.8736 19.3818 39.7128 18.9992 39.4282 18.7186L30.3658 9.78112C29.7788 9.20228 28.8348 9.20556 28.2518 9.78846L26.7286 11.3117L24.7892 9.3724Z" fill="white"/>
</g>
<defs>
<clipPath id="clip0_17122_10534">
<rect width="48" height="48" fill="white" transform="translate(0.5 0.661621)"/>
</clipPath>
</defs>
</svg>
