<svg width="48" height="48" viewBox="0 0 48 48" fill="none" xmlns="http://www.w3.org/2000/svg">
<path fill-rule="evenodd" clip-rule="evenodd" d="M29.804 4.166C29.188 4.784 28.364 5.196 27.336 5.196C26.308 5.196 25.486 4.784 24.868 4.166L23.224 2.316C22.194 1.288 20.754 0.876001 19.316 1.492C18.08 2.11 17.052 3.344 17.258 4.784L17.464 7.252C17.464 8.28 17.052 9.104 16.436 9.926C15.818 10.544 14.79 10.954 13.762 10.954L11.292 10.75C9.852 10.75 8.618 11.57 8.002 12.806C7.384 14.04 7.796 15.686 8.824 16.714L10.676 18.36C11.3063 19.031 11.6716 19.908 11.704 20.828C11.704 21.856 11.292 22.68 10.676 23.296L8.824 24.942C7.796 25.97 7.384 27.41 8.002 28.848C9.18128 28.6777 10.3815 28.7197 11.546 28.972L17.65 22.866C17.3573 21.4824 17.3654 20.0521 17.674 18.672C18.0615 16.8254 18.9798 15.1321 20.316 13.8C22.0733 12.0352 24.4479 11.0225 26.938 10.976C28.1271 10.927 29.3154 11.0923 30.446 11.464C30.664 11.532 30.878 11.604 31.09 11.684C31.2033 11.7273 31.3124 11.7809 31.416 11.844C33.1482 12.622 34.6189 13.8837 35.6513 15.4774C36.6837 17.0712 37.234 18.9291 37.236 20.828C37.236 22.592 36.772 24.248 35.956 25.68C35.536 26.448 35.002 27.172 34.346 27.828C32.6642 29.5127 30.4223 30.5212 28.046 30.662C27.1252 30.7271 26.1999 30.6652 25.296 30.478L19.174 36.598C19.426 37.77 19.468 38.976 19.294 40.154L19.314 40.164C20.55 40.78 22.194 40.37 23.224 39.34L24.868 37.49C25.5384 36.8585 26.4156 36.4924 27.336 36.46C28.16 36.46 29.188 36.872 29.806 37.49L31.45 39.34C32.478 40.37 34.124 40.78 35.358 40.164C35.975 39.8631 36.495 39.395 36.8588 38.813C37.2227 38.2309 37.4158 37.5584 37.416 36.872L37.21 34.404C37.21 33.376 37.622 32.348 38.238 31.73C39.062 31.112 39.884 30.702 40.912 30.702L43.38 30.908C44.82 31.112 46.054 30.084 46.672 28.85C47.29 27.41 46.878 25.97 45.85 24.942L43.998 23.296C43.669 22.9752 43.4084 22.5912 43.2317 22.1671C43.055 21.7429 42.966 21.2874 42.97 20.828C42.97 20.006 43.38 18.978 43.998 18.36L45.85 16.714C46.878 15.686 47.29 14.04 46.672 12.806C46.3708 12.1894 45.9026 11.6698 45.3206 11.3063C44.7386 10.9428 44.0662 10.7501 43.38 10.75L40.912 10.954C39.884 10.954 38.856 10.544 38.238 9.926C37.622 9.104 37.21 8.28 37.21 7.252L37.416 4.784C37.622 3.344 36.594 2.11 35.358 1.492C33.918 0.876001 32.478 1.288 31.45 2.316L29.806 4.166H29.804ZM30.732 21.614L34.59 17.754C35.696 20.526 35.28 24.066 32.93 26.414C30.73 28.614 27.53 29.214 24.73 28.214L16.93 36.014C17.93 38.814 17.33 42.014 15.13 44.214C12.77 46.574 9.44 47 6.474 45.87L10.332 42.014C11.532 40.814 11.532 39.014 10.332 37.814C9.132 36.614 7.332 36.614 6.132 37.814L2.268 41.676C0.947996 38.71 1.568 35.376 3.932 33.014C6.132 30.814 9.332 30.214 12.132 31.214L19.932 23.414C18.932 20.614 19.532 17.414 21.732 15.214C24.08 12.864 27.434 12.45 30.388 13.558L26.53 17.414C25.33 18.614 25.33 20.414 26.53 21.614C27.73 22.814 29.53 22.814 30.73 21.614H30.732Z" fill="white"/>
</svg>
