<svg width="65" height="64" viewBox="0 0 65 64" fill="none" xmlns="http://www.w3.org/2000/svg">
<path d="M0.833313 32C0.833313 14.3269 15.1602 0 32.8333 0C50.5064 0 64.8333 14.3269 64.8333 32C64.8333 49.6731 50.5064 64 32.8333 64C15.1602 64 0.833313 49.6731 0.833313 32Z" fill="#ECEFFD"/>
<g clip-path="url(#clip0_17129_11007)">
<path d="M32.9973 23.7624L28.3282 27.544C27.5517 28.1711 27.4021 29.2997 27.9906 30.1053C28.6128 30.9638 29.8235 31.1326 30.6579 30.4815L35.4476 26.7578C35.7853 26.4973 36.2676 26.5552 36.5329 26.8928C36.7982 27.2305 36.7355 27.7128 36.3978 27.9781L35.3897 28.7595L42.0943 34.9335V25.8269H42.0606L41.8724 25.7063L38.3706 23.4634C37.6326 22.9907 36.7692 22.7399 35.8914 22.7399C34.8399 22.7399 33.8173 23.1016 32.9973 23.7624ZM34.0971 29.7628L31.6033 31.7018C30.084 32.8884 27.8796 32.5797 26.7413 31.0169C25.6705 29.5457 25.9406 27.491 27.3539 26.3478L31.367 23.1016C30.8075 22.8653 30.2045 22.7447 29.592 22.7447C28.6852 22.7399 27.8025 23.01 27.0452 23.5116L23.5723 25.8269V36.6314H24.9325L29.3411 40.6541C30.2865 41.5175 31.748 41.45 32.6114 40.5046C32.8767 40.2104 33.0552 39.8679 33.1468 39.511L33.9668 40.2634C34.9074 41.1268 36.3737 41.0641 37.2371 40.1235C37.4542 39.8872 37.6133 39.6123 37.7146 39.3277C38.6504 39.9547 39.9238 39.8245 40.71 38.9659C41.5734 38.0253 41.5107 36.559 40.5701 35.6956L34.0971 29.7628ZM18.1701 25.8269C17.7456 25.8269 17.3983 26.1742 17.3983 26.5986V36.6314C17.3983 37.4851 18.0881 38.1749 18.9418 38.1749H20.4853C21.3391 38.1749 22.0288 37.4851 22.0288 36.6314V25.8269H18.1701ZM19.7136 35.0879C20.3077 35.0879 20.679 35.731 20.3819 36.2455C20.2441 36.4843 19.9893 36.6314 19.7136 36.6314C19.1195 36.6314 18.7482 35.9882 19.0452 35.4737C19.1831 35.235 19.4378 35.0879 19.7136 35.0879ZM43.6378 25.8269V36.6314C43.6378 37.4851 44.3276 38.1749 45.1813 38.1749H46.7248C47.5786 38.1749 48.2683 37.4851 48.2683 36.6314V26.5986C48.2683 26.1742 47.921 25.8269 47.4966 25.8269H43.6378ZM45.1813 35.8596C45.1813 35.2655 45.8244 34.8942 46.3389 35.1913C46.5777 35.3291 46.7248 35.5839 46.7248 35.8596C46.7248 36.4537 46.0817 36.825 45.5672 36.528C45.3284 36.3901 45.1813 36.1353 45.1813 35.8596Z" fill="#4158EE"/>
</g>
<defs>
<clipPath id="clip0_17129_11007">
<rect width="32" height="32" fill="white" transform="translate(16.8333 16)"/>
</clipPath>
</defs>
</svg>
