<svg width="48" height="48" viewBox="0 0 48 48" fill="none" xmlns="http://www.w3.org/2000/svg">
<path d="M22.5 4.14685C21.2874 4.37305 19.8632 4.86057 17.6754 5.60945L16.5298 6.00159C10.5166 8.05993 7.51006 9.08909 6.75504 10.1648C6.0165 11.2171 6.00036 14.2995 6 20.4188L22.5 14.9189V4.14685Z" fill="white"/>
<path d="M22.5 18.0812L6 23.5812V23.9828C6 35.2588 14.4779 40.731 19.7971 43.0546C20.8186 43.5008 21.4784 43.789 22.5 43.9194V18.0812Z" fill="white"/>
<path d="M25.5 43.9194V18.0812L42 23.5812V23.9828C42 35.2588 33.522 40.731 28.2028 43.0546C27.1814 43.5008 26.5216 43.789 25.5 43.9194Z" fill="white"/>
<path d="M25.5 14.9189V4.14685C26.7126 4.37305 28.1368 4.86057 30.3246 5.60945L31.4702 6.00159C37.4834 8.05993 40.49 9.08909 41.245 10.1648C41.9836 11.2171 41.9996 14.2995 42 20.4188L25.5 14.9189Z" fill="white"/>
</svg>
