<svg width="24" height="25" viewBox="0 0 24 25" fill="none" xmlns="http://www.w3.org/2000/svg">
<path d="M17 4.16162H7C4 4.16162 2 5.66162 2 9.16162V16.1616C2 19.6616 4 21.1616 7 21.1616H17C20 21.1616 22 19.6616 22 16.1616V9.16162C22 5.66162 20 4.16162 17 4.16162ZM17.47 10.2516L14.34 12.7516C13.68 13.2816 12.84 13.5416 12 13.5416C11.16 13.5416 10.31 13.2816 9.66 12.7516L6.53 10.2516C6.21 9.99162 6.16 9.51162 6.41 9.19162C6.67 8.87162 7.14 8.81162 7.46 9.07162L10.59 11.5716C11.35 12.1816 12.64 12.1816 13.4 11.5716L16.53 9.07162C16.85 8.81162 17.33 8.86162 17.58 9.19162C17.84 9.51162 17.79 9.99162 17.47 10.2516Z" fill="#CDC3FD"/>
</svg>
