<svg width="107" height="90" viewBox="0 0 107 90" fill="none" xmlns="http://www.w3.org/2000/svg">
<path opacity="0.2" d="M42.656 48.0036C46.5754 44.7389 49.5864 49.6 49.6894 53.7406C49.8178 58.9028 47.563 61.3747 43.2418 64.2475C38.1323 67.6445 31.233 65.0035 26.3082 62.6326C21.0941 60.1223 18.6215 53.0931 19.4255 47.7427C20.8791 38.0689 29.1287 33.3193 36.4529 27.9561C38.093 26.7552 40.1825 27.074 41.9004 26.1423C43.4851 25.2829 44.0739 24.0216 46.1237 24.4922C51.2068 25.6591 54.1971 29.0975 57.3892 32.9297C61.0063 37.2722 63.8462 41.0168 63.1737 47.0611C62.6808 51.4917 63.8114 56.0094 63.1351 60.362C62.472 64.6301 61.5694 68.4863 60.575 72.6892C59.9332 75.4022 55.9911 77.5192 53.9351 79.2318C49.7781 82.6945 46.084 84.4528 40.6151 85.0351C33.1622 85.8286 26.4548 80.6046 20.141 77.303C13.5327 73.8473 8.63704 69.5153 5.98528 62.1288C4.37319 57.6383 4.07082 53.5435 5.82114 48.9579C9.76077 38.6365 16.5891 29.3916 23.9866 21.2971C28.0958 16.8007 32.8468 12.0684 38.3763 9.31093C43.9591 6.52687 52.7201 2.38219 57.7475 5.70463C70.0398 5.97155 96.4389 5.9399 105.385 12.4837" stroke="#FFDD00" stroke-width="8.59303" stroke-linecap="round"/>
</svg>
