<svg width="65" height="65" viewBox="0 0 65 65" fill="none" xmlns="http://www.w3.org/2000/svg">
<path d="M0.333374 32.6616C0.333374 14.9885 14.6603 0.661621 32.3334 0.661621C50.0065 0.661621 64.3334 14.9885 64.3334 32.6616C64.3334 50.3347 50.0065 64.6616 32.3334 64.6616C14.6603 64.6616 0.333374 50.3347 0.333374 32.6616Z" fill="#D1FADF"/>
<g clip-path="url(#clip0_17121_10516)">
<path d="M30.3334 18.6615H17C16.8232 18.6615 16.6537 18.7318 16.5286 18.8568C16.4036 18.9818 16.3334 19.1514 16.3334 19.3282V34.6615C16.3334 34.8383 16.4036 35.0079 16.5286 35.1329C16.6537 35.258 16.8232 35.3282 17 35.3282H31.6667C31.8435 35.3282 32.0131 35.258 32.1381 35.1329C32.2631 35.0079 32.3334 34.8383 32.3334 34.6615V20.2482C32.2765 19.7735 32.0345 19.3404 31.6599 19.0433C31.2853 18.7461 30.8086 18.6089 30.3334 18.6615ZM28.3334 23.3282V30.6615C28.3334 30.9267 28.228 31.1811 28.0405 31.3686C27.8529 31.5562 27.5986 31.6615 27.3334 31.6615C27.0682 31.6615 26.8138 31.5562 26.6263 31.3686C26.4387 31.1811 26.3334 30.9267 26.3334 30.6615V23.3282C26.3334 23.063 26.4387 22.8086 26.6263 22.6211C26.8138 22.4336 27.0682 22.3282 27.3334 22.3282C27.5986 22.3282 27.8529 22.4336 28.0405 22.6211C28.228 22.8086 28.3334 23.063 28.3334 23.3282ZM22.3334 23.3282V30.6615C22.3334 30.9267 22.228 31.1811 22.0405 31.3686C21.8529 31.5562 21.5986 31.6615 21.3334 31.6615C21.0682 31.6615 20.8138 31.5562 20.6263 31.3686C20.4387 31.1811 20.3334 30.9267 20.3334 30.6615V23.3282C20.3334 23.063 20.4387 22.8086 20.6263 22.6211C20.8138 22.4336 21.0682 22.3282 21.3334 22.3282C21.5986 22.3282 21.8529 22.4336 22.0405 22.6211C22.228 22.8086 22.3334 23.063 22.3334 23.3282Z" fill="#126A11"/>
<path d="M43.2934 22.2082C43.2124 22.1902 43.1411 22.1426 43.0934 22.0749L42.1067 20.6615C40.3334 17.9949 35.8534 17.9949 35.6667 17.9949C35.3131 17.9949 34.9739 18.1353 34.7239 18.3854C34.4739 18.6354 34.3334 18.9746 34.3334 19.3282V36.6615C34.3334 36.8454 34.2603 37.0218 34.1303 37.1518C34.0003 37.2818 33.8239 37.3549 33.64 37.3549H17C16.8278 37.3547 16.6621 37.4213 16.5378 37.5406C16.4135 37.6599 16.3403 37.8227 16.3334 37.9949V41.0215C16.3317 41.0818 16.3471 41.1413 16.3778 41.1932C16.4084 41.2451 16.4531 41.2873 16.5067 41.3149C16.5584 41.3482 16.6186 41.3659 16.68 41.3659C16.7415 41.3659 16.8017 41.3482 16.8534 41.3149C17.4896 40.8919 18.236 40.6647 19 40.6615C19.8988 40.6644 20.7703 40.9698 21.4742 41.5286C22.1781 42.0874 22.6733 42.8669 22.88 43.7415C22.8997 43.8122 22.9413 43.8748 22.9988 43.9203C23.0563 43.9658 23.1268 43.9919 23.2 43.9949H24.1334C24.2067 43.9919 24.2771 43.9658 24.3346 43.9203C24.3921 43.8748 24.4337 43.8122 24.4534 43.7415C24.6601 42.8669 25.1553 42.0874 25.8592 41.5286C26.5631 40.9698 27.4347 40.6644 28.3334 40.6615C29.0134 40.6653 29.6813 40.8423 30.2738 41.1759C30.8664 41.5095 31.3642 41.9887 31.72 42.5682C31.8 42.6882 31.8667 42.7015 32.0934 42.7015H33.6667C33.8283 42.7049 33.9823 42.7707 34.0966 42.8849C34.2109 42.9992 34.2766 43.1533 34.28 43.3149C34.28 43.6685 34.4205 44.0076 34.6706 44.2577C34.9206 44.5077 35.2598 44.6482 35.6134 44.6482H35.96C36.044 44.6485 36.125 44.617 36.1868 44.5602C36.2486 44.5033 36.2867 44.4252 36.2934 44.3415C36.2934 43.2807 36.7148 42.2633 37.4649 41.5131C38.2151 40.763 39.2325 40.3415 40.2934 40.3415C41.3542 40.3415 42.3717 40.763 43.1218 41.5131C43.8719 42.2633 44.2934 43.2807 44.2934 44.3415C44.3001 44.4252 44.3382 44.5033 44.4 44.5602C44.4618 44.617 44.5427 44.6485 44.6267 44.6482H45.6667C46.374 44.6482 47.0522 44.3673 47.5523 43.8672C48.0524 43.3671 48.3334 42.6888 48.3334 41.9815V28.6615C48.3307 27.1785 47.8337 25.7387 46.9209 24.5699C46.008 23.4011 44.7316 22.5701 43.2934 22.2082ZM45.96 32.3015C45.9656 32.3446 45.9623 32.3884 45.9504 32.4302C45.9385 32.472 45.9182 32.5109 45.8907 32.5446C45.8633 32.5783 45.8293 32.606 45.7908 32.6261C45.7522 32.6462 45.71 32.6583 45.6667 32.6615H42C41.95 32.6626 41.9005 32.6523 41.855 32.6316C41.8095 32.6108 41.7692 32.5801 41.7372 32.5417C41.7052 32.5033 41.6822 32.4581 41.67 32.4096C41.6578 32.3611 41.6567 32.3105 41.6667 32.2615V25.0082C41.6656 24.9628 41.6746 24.9177 41.693 24.8762C41.7115 24.8347 41.7389 24.7978 41.7734 24.7682C41.8061 24.7341 41.8455 24.707 41.889 24.6887C41.9326 24.6703 41.9794 24.6611 42.0267 24.6615C43.063 24.7358 44.0378 25.1811 44.7725 25.9158C45.5071 26.6504 45.9524 27.6252 46.0267 28.6615L45.96 32.3015Z" fill="#126A11"/>
<path d="M16.3334 44.6615C16.3334 45.3688 16.6143 46.0471 17.1144 46.5472C17.6145 47.0473 18.2928 47.3282 19 47.3282C19.7073 47.3282 20.3856 47.0473 20.8857 46.5472C21.3858 46.0471 21.6667 45.3688 21.6667 44.6615C21.6667 43.9543 21.3858 43.276 20.8857 42.7759C20.3856 42.2758 19.7073 41.9949 19 41.9949C18.2928 41.9949 17.6145 42.2758 17.1144 42.7759C16.6143 43.276 16.3334 43.9543 16.3334 44.6615Z" fill="#126A11"/>
<path d="M25.6667 44.6615C25.6667 45.0117 25.7357 45.3585 25.8697 45.682C26.0037 46.0056 26.2002 46.2995 26.4478 46.5472C26.6954 46.7948 26.9894 46.9912 27.3129 47.1252C27.6365 47.2592 27.9832 47.3282 28.3334 47.3282C28.6836 47.3282 29.0304 47.2592 29.3539 47.1252C29.6774 46.9912 29.9714 46.7948 30.219 46.5472C30.4667 46.2995 30.6631 46.0056 30.7971 45.682C30.9311 45.3585 31.0001 45.0117 31.0001 44.6615C31.0001 44.3113 30.9311 43.9646 30.7971 43.6411C30.6631 43.3175 30.4667 43.0235 30.219 42.7759C29.9714 42.5283 29.6774 42.3319 29.3539 42.1979C29.0304 42.0638 28.6836 41.9949 28.3334 41.9949C27.9832 41.9949 27.6365 42.0638 27.3129 42.1979C26.9894 42.3319 26.6954 42.5283 26.4478 42.7759C26.2002 43.0235 26.0037 43.3175 25.8697 43.6411C25.7357 43.9646 25.6667 44.3113 25.6667 44.6615Z" fill="#126A11"/>
<path d="M37.6667 44.6615C37.6667 45.3688 37.9477 46.0471 38.4478 46.5472C38.9479 47.0473 39.6262 47.3282 40.3334 47.3282C41.0407 47.3282 41.7189 47.0473 42.219 46.5472C42.7191 46.0471 43.0001 45.3688 43.0001 44.6615C43.0001 43.9543 42.7191 43.276 42.219 42.7759C41.7189 42.2758 41.0407 41.9949 40.3334 41.9949C39.6262 41.9949 38.9479 42.2758 38.4478 42.7759C37.9477 43.276 37.6667 43.9543 37.6667 44.6615Z" fill="#126A11"/>
</g>
<defs>
<clipPath id="clip0_17121_10516">
<rect width="32" height="32" fill="white" transform="translate(16.3334 16.6616)"/>
</clipPath>
</defs>
</svg>
