<svg width="24" height="25" viewBox="0 0 24 25" fill="none" xmlns="http://www.w3.org/2000/svg">
<path d="M9.48997 4.85579L9.49006 4.85589L9.49863 4.84841L11.0651 3.48148C11.5804 3.04997 12.4336 3.05364 12.9343 3.48115C12.9345 3.48133 12.9347 3.48151 12.9349 3.4817L14.5124 4.83952C14.5127 4.83973 14.5129 4.83995 14.5131 4.84016C14.7223 5.0212 14.9979 5.16473 15.262 5.26287C15.5263 5.36109 15.8272 5.43168 16.0999 5.43168H17.7999C18.5837 5.43168 19.2299 6.07782 19.2299 6.86168V8.56168C19.2299 8.8387 19.3001 9.13956 19.399 9.40418C19.4978 9.66847 19.6415 9.94054 19.8214 10.1484C19.8216 10.1487 19.8218 10.1489 19.822 10.1491L21.1799 11.7266C21.1801 11.7268 21.1802 11.7271 21.1804 11.7273C21.6095 12.2298 21.6104 13.0941 21.1888 13.5979L19.832 15.1742C19.8318 15.1745 19.8315 15.1748 19.8313 15.1751C19.6503 15.3842 19.5068 15.6597 19.4087 15.9238C19.3105 16.1881 19.2399 16.489 19.2399 16.7617V18.4617C19.2399 19.2455 18.5937 19.8917 17.8099 19.8917H16.1099C15.8329 19.8917 15.532 19.9619 15.2674 20.0608C15.0032 20.1595 14.7312 20.3032 14.5233 20.4831C14.523 20.4833 14.5227 20.4836 14.5224 20.4838L12.9476 21.8394C12.9471 21.8399 12.9465 21.8404 12.9459 21.8409C12.4307 22.2734 11.5766 22.2701 11.0755 21.8422C11.0753 21.842 11.075 21.8419 11.0748 21.8417L9.49735 20.4838C9.49711 20.4836 9.49688 20.4834 9.49664 20.4832C9.28748 20.3022 9.0119 20.1586 8.74779 20.0605C8.48345 19.9623 8.18258 19.8917 7.90988 19.8917H6.17988C5.39603 19.8917 4.74988 19.2455 4.74988 18.4617V16.7517C4.74988 16.4787 4.67913 16.1803 4.58254 15.9194C4.48569 15.6577 4.34588 15.3879 4.17399 15.1816L4.17401 15.1816L4.17103 15.1781L2.82263 13.59C2.82238 13.5897 2.82214 13.5894 2.82189 13.5891C2.39921 13.0853 2.39921 12.2381 2.8219 11.7343C2.82214 11.734 2.82238 11.7337 2.82263 11.7334L4.17103 10.1453L4.17105 10.1453L4.17399 10.1418C4.34588 9.9355 4.48569 9.66562 4.58254 9.404C4.67913 9.14307 4.74988 8.84471 4.74988 8.57168V6.86168C4.74988 6.07782 5.39602 5.43168 6.17988 5.43168H7.90988C8.18235 5.43168 8.4827 5.36118 8.74553 5.26495C9.00873 5.16859 9.28231 5.02884 9.48997 4.85579ZM11.6834 15.9552L16.5134 11.1252C16.9987 10.64 16.9987 9.84339 16.5134 9.35813C16.0282 8.87286 15.2316 8.87286 14.7463 9.35813L10.7999 13.3046L9.26344 11.7681C8.77817 11.2829 7.98159 11.2829 7.49633 11.7681C7.01107 12.2534 7.01107 13.05 7.49633 13.5352L9.91633 15.9552C10.149 16.1879 10.4658 16.3217 10.7999 16.3217C11.134 16.3217 11.4507 16.1879 11.6834 15.9552Z" fill="white" stroke="white"/>
</svg>
